<svg width="283" height="302" viewBox="0 0 283 302" fill="none" xmlns="http://www.w3.org/2000/svg">
<path fill-rule="evenodd" clip-rule="evenodd" d="M150.67 214.351L156.56 226.382C156.56 226.382 159.754 224.942 162.899 226.779C166.217 225.209 171.006 225.93 173.772 228.617C176.539 231.304 177.717 235.651 177.717 235.651C177.717 235.651 179.25 246.32 174.689 249.912C173.556 250.804 173.388 251.939 171.34 247.765C169.291 243.591 151.619 241.789 151.619 241.789C151.619 241.789 143.336 245.748 140.678 240.813C139.237 237.27 140.425 233.415 140.425 233.415C140.425 233.415 141.547 228.617 144.18 227.666C142.915 221.776 141.071 216.414 143.707 214.59C145.506 213.345 149.654 210.543 150.67 214.351Z" fill="#010103"/>
<path d="M113.494 32.1322C121.96 78.7056 133.59 104.793 148.383 110.396C159.374 114.558 154.743 139.434 127.751 173.526C123.958 178.317 126.659 192.904 120.169 194.525C114.765 195.876 106.059 186.626 99.0833 193.138C89.6357 189.867 67.4476 171.824 77.0858 113.41C80.8259 90.7422 87.248 70.3799 97.4 51.9724C100.978 45.4856 106.342 38.8722 113.494 32.1322Z" fill="#010103"/>
<path fill-rule="evenodd" clip-rule="evenodd" d="M139.661 206.143L113.052 198.558C99.1018 194.998 90.8266 191.911 88.2263 189.299C84.3259 185.382 81.8803 181.244 83.7543 179.892C86.8784 177.64 91.3854 175.677 97.2751 174.005C94.1559 174.164 92.7816 174.004 93.1521 173.523C93.9927 172.432 98.4671 169.203 106.575 163.838C109.731 160.689 111.668 158.617 112.385 157.621C113.297 156.355 107.425 156.825 103.899 156.825C108.268 150.788 113.052 148.164 118.633 146.835C119.908 145.8 121.261 144.334 122.69 142.437C120.337 141.897 118.596 141.627 117.466 141.627C119.004 138.951 123.118 135.332 129.81 130.771L125.063 132.117C126.697 129.097 128.366 126.767 130.067 125.127C131.768 123.486 133.409 122.393 134.988 121.848C138.073 114.835 140 110.146 140.769 107.779C141.538 105.413 141.599 103.983 140.953 103.487L129.681 90.1796L164.335 93.5981L167.291 103.162L173.692 142.591L175.467 211.386L156.942 220.277C154.848 222.054 152.709 221.654 151.972 220.622L139.661 206.143Z" fill="#CECDC4"/>
<path fill-rule="evenodd" clip-rule="evenodd" d="M122.371 93.5002C125.171 84.4911 146.128 77.6268 155.449 80.6555C161.663 82.6746 165.129 89.9063 165.845 102.351C166.62 105.925 165.524 122.203 163.28 131.802C163.963 133.268 166.464 137.526 166.211 139.476C164.952 137.466 163.368 136.86 163.368 136.86L162.285 143.392C162.285 143.392 165.8 150.933 165.41 152.337C164.193 151.359 162.344 150.441 162.143 150.342L162.125 150.333C162.125 150.333 161.842 158.52 161.654 160.465C163.655 163.061 166.554 171.624 166.554 171.624C166.554 171.624 161.114 165.717 161.161 168.478C161.208 171.237 162.238 181.484 162.238 181.484C162.238 181.484 165.432 187.265 166.919 194.544C165.254 192.5 163.443 190.48 162.319 189.25C161.91 188.804 161.162 189.054 161.116 189.66C160.395 199.3 157.09 213.738 154.642 218.158C152.054 222.831 141.81 222.611 141.019 220.1C140.438 218.253 138.161 209.749 131.252 204.46C137.059 211.946 137.69 223.387 137.69 223.387C135.114 223.256 132.622 223.001 130.225 222.649L125.827 212.339L127.847 222.263C123.715 221.529 119.892 220.519 116.437 219.389L120.184 209.575L114.38 218.687C111.103 217.522 108.201 216.268 105.734 215.076L112.854 207.412L103.605 214.01C98.9218 211.578 96.2943 209.635 96.2943 209.635C96.2943 209.635 104.02 201.569 113.26 198.947C107.19 198.642 86.3539 192.849 86.4594 189.66C86.4917 188.688 83.7595 181.838 86.4594 180.153C92.2981 176.51 99.1799 174.848 103.38 172.824C103.881 172.582 103.421 171.527 102.752 171.666C101.112 172.008 98.7642 172.526 96.4978 173.126C101.979 168.111 107.961 165.311 107.961 165.311C107.961 165.311 114.818 157.627 116.477 155.423C118.138 153.216 110.265 154.798 110.265 154.798C110.265 154.798 117.643 149.574 120.788 148.65C121.78 146.966 126.363 140.176 126.363 140.176C126.363 140.176 124.178 139.787 122.527 139.867C123.037 138.501 130.313 134.467 130.313 134.467L133.276 128.546C133.276 128.546 131.639 128.105 129.439 128.991C130.38 127.265 136.32 124.506 136.32 124.506C136.32 124.506 138.638 120.232 139.752 117.557C140.79 115.065 141.964 110.468 142.12 109.853L142.122 109.843L142.112 109.854C141.643 110.319 135.372 111.187 131.001 108.303L130.862 108.21C125.224 104.349 121.65 95.8118 122.371 93.5002Z" fill="#010103"/>
<path d="M228.533 129.127C227.7 163.174 213.608 173.916 211.867 176.96C211.867 176.96 216.367 180.793 225.533 184.46C234.7 188.126 250.7 191.46 250.7 191.46C239.2 200.959 202.533 201.293 194.73 197.6C194.73 197.6 190.55 202.289 188.776 203.918C188.776 203.918 192.7 210.126 196.367 213.126C200.033 216.126 210.097 220.532 210.097 220.532C203.033 222.366 186.2 222.126 174.419 217.868C166.96 221.087 159.315 221.042 157.377 220.971C157.15 220.962 157.012 220.737 157.109 220.532C160.063 214.325 163.521 203.01 163.357 195.196C165.432 197.302 169.335 203.16 172.555 210.323C171.806 199.564 166.555 183.529 163.372 174.306C163.387 173.779 163.4 173.256 163.414 172.733L163.423 172.358C165.111 174.277 168.745 178.128 171.129 183.43C170.589 175.657 167.125 165.555 163.973 157.599C164.026 156.528 164.083 155.467 164.141 154.427C165.487 156.346 168.677 159.576 170.292 163.174C169.893 157.404 168.703 150.471 164.828 143.642C164.886 142.836 164.948 142.031 165.004 141.255C166.188 143.068 169.05 145.554 170.412 148.59C170.067 143.611 168.927 136.713 165.506 131.831C166.619 125.877 167.494 120.015 167.811 114.184C167.977 111.122 167.657 107.734 167.47 104.679C172.553 115.361 177.728 121.065 182.995 121.791C190.895 122.88 199.578 109.288 196.604 89.795C194.957 78.997 204.982 70.5179 204.982 70.5179C206.491 69.163 208.892 69.8287 209.488 71.7669C209.488 71.7669 229.366 95.0798 228.533 129.127Z" fill="black"/>
<path fill-rule="evenodd" clip-rule="evenodd" d="M133.67 94.0822C134.437 91.7226 136.978 90.4257 139.336 91.1919C140.404 91.5389 141.017 92.7616 141.558 93.6563C142.211 94.7366 142.649 95.5724 142.229 96.8633C141.463 99.2231 138.917 100.519 136.555 99.7513C134.197 98.9852 132.903 96.442 133.67 94.0822Z" fill="white"/>
<path d="M136.965 98.0927C138.622 98.0927 139.965 96.7496 139.965 95.0927C139.965 93.4359 138.622 92.0928 136.965 92.0928C135.308 92.0928 133.965 93.4359 133.965 95.0927C133.965 96.7496 135.308 98.0927 136.965 98.0927Z" fill="#010103"/>
<path fill-rule="evenodd" clip-rule="evenodd" d="M132.743 107.111C136.233 106.291 143.046 107.081 143.735 109.999C143.894 110.67 143.449 111.343 142.795 111.558C141.971 111.828 141.031 112.195 140.024 112.625C140.042 112.568 140.05 112.539 140.05 112.539C140.05 112.539 123.853 118.065 120.542 122.034C117.23 126.002 116.327 131.705 115.545 132.529L106.817 115.631C105.154 112.376 104.264 106.349 107.482 104.548L119.982 97.1981L120.03 97.1961C120.03 97.1961 127.303 92.0494 132.743 107.111Z" fill="#D18D1E"/>
<path fill-rule="evenodd" clip-rule="evenodd" d="M126.119 106.267C124.919 107.034 121.24 102.776 120.161 101.478C120.04 101.332 120.147 101.108 120.334 101.11C121.54 101.121 124.706 101.22 125.791 101.95C127.147 102.859 127.534 105.366 126.119 106.267Z" fill="#854205"/>
<path fill-rule="evenodd" clip-rule="evenodd" d="M125.588 105.112C124.634 105.737 121.338 101.835 121.411 101.61C121.484 101.384 124.486 101.539 125.388 102.155C126.295 102.771 126.542 104.488 125.588 105.112Z" fill="#010103"/>
<path fill-rule="evenodd" clip-rule="evenodd" d="M143.611 109.404C143.611 109.404 142.16 110.107 128.089 115.202C125.616 116.097 122.327 120.363 122.327 120.363L143.643 111.293C143.772 111.238 143.874 111.144 143.93 111.017C144.171 110.47 144.091 109.911 143.611 109.404Z" fill="#854605"/>
<path d="M167.063 63.4001C169.978 65.4892 169.609 69.3192 165.956 74.8899C164.649 76.8823 161.523 80.0945 156.576 84.5266C156.225 78.2549 156.752 73.705 158.156 70.877C158.781 69.6178 159.716 68.4251 160.962 67.299L162.604 71.0878L162.689 65.9205C163.934 65.0348 165.392 64.1946 167.063 63.4001Z" fill="#010103"/>
<path d="M156.378 82.1223C153.592 79.4455 151.927 77.176 151.384 75.3137C150.84 73.4514 151.152 71.0836 152.32 68.2103C154.526 67.928 155.961 69.8073 156.626 73.8482C156.864 75.2935 156.781 78.0515 156.378 82.1223Z" fill="#010103"/>
<path d="M144.794 108.386C143.013 110.064 141.423 110.824 140.023 110.668C137.924 110.434 137.653 112.007 136.025 112.703C134.397 113.399 133.984 112.782 133.047 113.078C132.11 113.375 131.106 114.28 129.885 114.973C128.664 115.666 127.254 115.325 126.386 116.102C125.517 116.879 125.898 117.604 124.088 118.547C122.882 119.176 122.028 120.243 121.526 121.748" stroke="#010103"/>
<path fill-rule="evenodd" clip-rule="evenodd" d="M155.099 229.78C155.099 229.78 150.962 227.15 147.97 227.889C144.978 228.628 143.457 230.961 142.502 233.488C141.547 236.014 144.185 242.346 145.615 242.979C147.046 243.612 147.97 241.585 147.97 236.435C147.97 233.488 155.632 233.349 155.632 233.349L155.099 229.78Z" fill="#CC7910"/>
<path fill-rule="evenodd" clip-rule="evenodd" d="M160.232 229.78C160.232 229.78 164.885 227.15 168.251 227.889C171.617 228.628 173.328 230.961 174.403 233.488C175.477 236.014 172.51 242.346 170.901 242.979C169.291 243.612 168.251 241.585 168.251 236.435C168.251 233.488 159.632 233.349 159.632 233.349L160.232 229.78Z" fill="#CC7910"/>
<path fill-rule="evenodd" clip-rule="evenodd" d="M44.6328 282.704C44.6328 283.47 45.2548 284.091 46.0221 284.091H188.909C189.676 284.091 190.298 283.47 190.298 282.704V235.479C190.298 234.713 189.676 234.091 188.909 234.091H46.0221C45.2548 234.091 44.6328 234.713 44.6328 235.479V282.704Z" fill="#010103"/>
<path fill-rule="evenodd" clip-rule="evenodd" d="M171.784 231.38C170.575 230.208 168.475 230.746 169.637 232.543C170.799 234.339 171.205 234.285 173.295 236.758C174.249 235.093 172.992 232.551 171.784 231.38Z" fill="#010103"/>
<path fill-rule="evenodd" clip-rule="evenodd" d="M149.807 216.412C149.807 216.412 154.994 228.52 157.965 230.935C155.657 233.35 149.176 233.757 145.802 232.054C146.318 227.508 145.225 221.895 144.397 218.527C143.875 216.404 145.505 214.236 147.666 214.438C148.647 214.53 149.501 215.045 149.807 216.412Z" fill="#CC7910"/>
<path fill-rule="evenodd" clip-rule="evenodd" d="M152.972 229.78C152.972 229.78 157.602 227.15 160.951 227.889C164.299 228.628 166.002 230.961 167.071 233.488C168.139 236.014 165.188 242.346 163.586 242.979C161.985 243.612 160.951 241.585 160.951 236.435C160.951 233.664 150.632 234.025 150.632 234.025L152.972 229.78Z" fill="#CC7910"/>
<path fill-rule="evenodd" clip-rule="evenodd" d="M165.632 236.315C165.632 234.571 163.416 233.867 162.901 234.918C162.387 235.969 163.003 237.913 162.632 241.425C164.616 240.863 165.632 238.059 165.632 236.315Z" fill="#010103"/>
<path opacity="0.2" fill-rule="evenodd" clip-rule="evenodd" d="M167.167 234.117C167.167 234.117 166.405 230.896 163.298 229.326C164.673 229.021 166.068 229.579 166.068 229.579C170.301 230.51 171.298 234.758 171.298 234.758L167.167 234.117Z" fill="#010103"/>
<path fill-rule="evenodd" clip-rule="evenodd" d="M146.632 234.124L158.965 234.758C158.965 234.758 150.239 227.701 146.632 234.124Z" fill="#010103"/>
<g opacity="0.3">
<path opacity="0.3" fill-rule="evenodd" clip-rule="evenodd" d="M143.438 218.328C143.786 217.661 144.216 217.13 144.769 216.654C145.312 216.186 145.972 215.806 146.706 215.619C147.438 215.45 148.228 215.473 148.917 215.702C149.28 215.775 149.585 215.963 149.916 216.096C150.221 216.272 150.501 216.479 150.789 216.669C151.017 216.82 151.08 217.127 150.929 217.354C150.79 217.566 150.516 217.635 150.296 217.525L150.235 217.494C149.695 217.225 149.165 216.962 148.617 216.842C148.072 216.687 147.525 216.732 147.012 216.856C146.493 216.972 145.995 217.232 145.554 217.591C145.126 217.949 144.701 218.407 144.394 218.849L144.366 218.89C144.195 219.137 143.856 219.197 143.609 219.026C143.382 218.868 143.312 218.567 143.438 218.328Z" fill="#010103"/>
<path opacity="0.3" fill-rule="evenodd" clip-rule="evenodd" d="M143.791 220.584C144.217 219.886 144.727 219.348 145.358 218.881C145.979 218.42 146.706 218.056 147.495 217.884C148.284 217.734 149.118 217.757 149.867 217.979C150.258 218.05 150.596 218.236 150.958 218.364C151.296 218.537 151.612 218.743 151.934 218.931C152.168 219.071 152.245 219.374 152.105 219.608C151.975 219.826 151.703 219.908 151.477 219.805L151.419 219.778C150.81 219.508 150.209 219.246 149.591 219.125C148.975 218.97 148.355 219.012 147.767 219.129C147.173 219.238 146.601 219.496 146.085 219.855C145.583 220.214 145.083 220.683 144.718 221.148L144.687 221.189C144.505 221.427 144.165 221.472 143.927 221.291C143.707 221.122 143.652 220.817 143.791 220.584Z" fill="#010103"/>
<path opacity="0.3" fill-rule="evenodd" clip-rule="evenodd" d="M144.144 222.84C144.649 222.112 145.239 221.567 145.948 221.107C146.647 220.654 147.441 220.308 148.286 220.151C149.13 220.018 150.01 220.042 150.818 220.257C151.235 220.326 151.608 220.508 152.001 220.632C152.372 220.804 152.722 221.007 153.08 221.193C153.32 221.322 153.41 221.621 153.281 221.861C153.16 222.086 152.89 222.18 152.659 222.084L152.604 222.061C151.926 221.791 151.254 221.531 150.566 221.408C149.878 221.253 149.186 221.293 148.523 221.401C147.854 221.505 147.208 221.76 146.617 222.119C146.04 222.479 145.466 222.959 145.042 223.447L145.008 223.488C144.815 223.717 144.474 223.747 144.245 223.555C144.032 223.376 143.993 223.066 144.144 222.84Z" fill="#010103"/>
<path opacity="0.3" fill-rule="evenodd" clip-rule="evenodd" d="M144.498 225.097C145.08 224.338 145.751 223.785 146.538 223.333C147.315 222.888 148.176 222.559 149.076 222.416C149.977 222.302 150.902 222.326 151.769 222.534C152.213 222.601 152.62 222.78 153.044 222.9C153.448 223.069 153.835 223.271 154.227 223.455C154.473 223.573 154.576 223.868 154.458 224.115C154.347 224.346 154.078 224.452 153.841 224.365L153.789 224.345C153.042 224.074 152.3 223.815 151.54 223.69C150.782 223.536 150.018 223.574 149.279 223.673C148.535 223.771 147.815 224.024 147.149 224.384C146.498 224.744 145.849 225.235 145.367 225.747L145.329 225.788C145.127 226.008 144.784 226.022 144.563 225.82C144.358 225.63 144.333 225.316 144.498 225.097Z" fill="#010103"/>
<path opacity="0.3" fill-rule="evenodd" clip-rule="evenodd" d="M144.851 227.353C145.511 226.564 146.262 226.003 147.128 225.56C147.982 225.122 148.91 224.81 149.866 224.682C150.822 224.586 151.793 224.61 152.719 224.812C153.191 224.876 153.631 225.053 154.085 225.169C154.524 225.335 154.945 225.536 155.372 225.717C155.624 225.825 155.741 226.116 155.634 226.368C155.532 226.607 155.265 226.725 155.023 226.645L154.973 226.628C154.157 226.356 153.344 226.1 152.514 225.973C151.685 225.82 150.849 225.855 150.034 225.946C149.216 226.038 148.421 226.289 147.68 226.649C146.954 227.01 146.231 227.511 145.691 228.046L145.649 228.087C145.437 228.299 145.093 228.298 144.882 228.085C144.683 227.884 144.674 227.566 144.851 227.353Z" fill="#010103"/>
</g>
<path fill-rule="evenodd" clip-rule="evenodd" d="M165.536 235.903C165.234 234.313 163.363 233.655 163.301 235.731C163.24 237.808 164.023 236.757 163.863 241.091C165.458 240.228 165.838 237.493 165.536 235.903Z" fill="#010103"/>
<path fill-rule="evenodd" clip-rule="evenodd" d="M144.966 215.092C144.966 215.092 144.615 215.488 144.777 217.416C144.94 219.345 146.965 228.02 146.965 228.02L145.353 228.758L143.299 217.416C143.299 217.416 144.312 215.315 144.966 215.092Z" fill="#010103"/>
<path fill-rule="evenodd" clip-rule="evenodd" d="M60.6618 180.811C56.3367 180.811 53.4285 183.477 51.7174 185.914C50.9129 187.059 50.8571 189.391 51.3381 191.771C51.9005 194.553 53.1372 197.239 54.1113 197.934C54.5587 198.253 54.9482 198.359 55.2838 198.351C55.6954 198.342 56.0788 198.175 56.43 197.783C56.8671 197.294 57.2761 196.283 57.8126 194.82C58.1909 193.788 58.6569 192.517 59.3075 191.055C59.7029 190.167 60.1731 189.583 60.7204 189.265C61.2992 188.929 61.9453 188.915 62.5979 189.065C65.6517 189.771 68.8942 193.784 68.8942 193.784C68.8942 193.784 70.2712 195.488 71.2437 197.543L69.0049 186.65C69.0049 186.65 64.9864 180.811 60.6618 180.811Z" fill="#CC7910" stroke="black" stroke-width="2" stroke-linejoin="round"/>
<path fill-rule="evenodd" clip-rule="evenodd" d="M53.176 190.155C53.6949 188.535 55.9198 188.407 55.7667 190.665C55.6134 192.922 55.2088 192.999 54.5415 196.268C52.7994 194.841 52.657 191.775 53.176 190.155Z" fill="#010103"/>
<path fill-rule="evenodd" clip-rule="evenodd" d="M73.3503 182.623C73.3503 182.623 73.0656 179.137 69.9359 177.283C53.6813 171.832 52.2643 187.685 56.28 187.954C56.8944 187.995 62.5074 186.296 63.0669 186.357C69.1636 187.024 67.9474 190.518 68.3182 191.633C69.3121 194.621 62.5276 197.17 61.8979 199.314C61.1817 201.753 64.6569 202.499 67.9849 202.499C71.9304 202.499 75.7519 199.805 75.7519 199.805C75.7519 199.805 78.6579 196.81 78.2164 194.051C83.9821 192.299 89.5666 191.308 89.8874 188.121C90.1064 185.948 90.5518 180.969 86.7271 181.928L73.3503 182.623Z" fill="#010103"/>
<path fill-rule="evenodd" clip-rule="evenodd" d="M71.238 185.808C71.238 185.808 75.5439 188.15 76.3479 191.125C77.152 194.101 75.849 196.562 74.1022 198.622C72.3552 200.682 65.539 201.445 64.2918 200.501C63.0444 199.557 64.3693 197.765 68.8736 195.268C71.4513 193.84 67.8584 187.071 67.8584 187.071L71.238 185.808Z" fill="#CC7910"/>
<path fill-rule="evenodd" clip-rule="evenodd" d="M85.4954 183.955C85.4954 183.955 72.3907 185.288 68.8382 183.86C67.8453 187.05 70.6318 192.916 73.7566 195.041C77.4821 192.386 82.9217 190.621 86.2687 189.712C88.3789 189.139 89.4848 186.663 88.26 184.87C87.7037 184.057 86.8393 183.56 85.4954 183.955Z" fill="#CC7910"/>
<path fill-rule="evenodd" clip-rule="evenodd" d="M72.2491 187.632C72.2491 187.632 72.3114 182.319 70.046 179.757C67.7805 177.195 64.9173 176.841 62.1908 177.134C59.4639 177.426 55.3531 183.07 55.5738 184.774C55.7942 186.477 58.0673 186.397 62.5716 183.9C65.1493 182.471 69.6851 191.775 69.6851 191.775L72.2491 187.632Z" fill="#CC7910"/>
<path fill-rule="evenodd" clip-rule="evenodd" d="M60.8218 177.586C63.3347 176.682 65.6949 177.041 67.9023 178.662C67.8917 177.265 67.4341 176.919 67.4341 176.919C64.1745 175.078 61.118 175.3 58.2647 177.586L60.8218 177.586Z" fill="#010103"/>
<path fill-rule="evenodd" clip-rule="evenodd" d="M71.729 195.597L65.0094 184.839C65.0094 184.839 75.5876 189.407 71.729 195.597Z" fill="#010103"/>
<path opacity="0.5" fill-rule="evenodd" clip-rule="evenodd" d="M60.7945 185.217C64.3664 185.257 72.0158 188.929 68.1573 195.118C67.1211 191.851 66.3471 190.19 65.8354 190.133C59.3372 189.414 60.7945 185.217 60.7945 185.217Z" fill="#010103"/>
<g opacity="0.3">
<path opacity="0.3" fill-rule="evenodd" clip-rule="evenodd" d="M85.9487 189.801C86.1864 189.319 86.3809 188.725 86.4874 188.177C86.5879 187.617 86.5736 187.056 86.4227 186.546C86.2835 186.037 86.0567 185.536 85.6567 185.135C85.2864 184.714 84.7994 184.378 84.3023 184.037L84.2467 183.998C84.0211 183.843 83.9641 183.535 84.1191 183.31C84.2623 183.101 84.5372 183.037 84.7559 183.152C85.0612 183.311 85.378 183.456 85.6802 183.637C85.9562 183.862 86.2686 184.037 86.5092 184.32C87.0432 184.812 87.4459 185.492 87.6537 186.214C87.8461 186.946 87.833 187.707 87.6866 188.409C87.5391 189.124 87.283 189.757 86.8684 190.385C86.7032 190.636 86.3658 190.705 86.1151 190.54C85.884 190.387 85.8076 190.088 85.9267 189.846L85.9487 189.801Z" fill="#010103"/>
<path opacity="0.3" fill-rule="evenodd" clip-rule="evenodd" d="M83.7813 190.633C84.0111 190.087 84.1791 189.423 84.2497 188.81C84.3138 188.184 84.2616 187.559 84.0698 186.987C83.8863 186.416 83.6226 185.853 83.1883 185.389C82.7827 184.908 82.2629 184.509 81.7314 184.107L81.6803 184.07C81.4607 183.908 81.4146 183.598 81.5776 183.379C81.7289 183.175 82.0083 183.12 82.2222 183.246C82.544 183.436 82.8758 183.614 83.1914 183.825C83.479 184.08 83.8051 184.286 84.0571 184.593C84.6139 185.14 85.0388 185.859 85.2895 186.621C85.5218 187.395 85.5563 188.206 85.4541 188.973C85.3515 189.752 85.1279 190.459 84.7246 191.17C84.5736 191.428 84.2421 191.515 83.9842 191.364C83.7448 191.224 83.6524 190.929 83.7606 190.681L83.7813 190.633Z" fill="#010103"/>
<path opacity="0.3" fill-rule="evenodd" clip-rule="evenodd" d="M81.613 191.463C81.8352 190.856 81.9763 190.121 82.0113 189.443C82.039 188.752 81.9493 188.062 81.7158 187.427C81.4885 186.795 81.1877 186.17 80.7196 185.644C80.2779 185.101 79.7253 184.64 79.1597 184.178L79.1134 184.142C78.8999 183.972 78.8647 183.661 79.035 183.448C79.1946 183.248 79.4788 183.204 79.6884 183.341C80.0254 183.561 80.3723 183.771 80.7019 184.013C81.0013 184.296 81.3409 184.534 81.6039 184.866C82.1839 185.467 82.6309 186.226 82.9245 187.028C83.1967 187.844 83.2786 188.706 83.2208 189.537C83.1633 190.38 82.9719 191.161 82.5796 191.955C82.4432 192.221 82.1171 192.325 81.852 192.188C81.6044 192.061 81.4968 191.77 81.5936 191.515L81.613 191.463Z" fill="#010103"/>
<path opacity="0.3" fill-rule="evenodd" clip-rule="evenodd" d="M79.445 192.295C79.6594 191.625 79.7736 190.82 79.773 190.076C79.7647 189.319 79.6371 188.566 79.362 187.868C79.0909 187.174 78.753 186.487 78.2508 185.899C77.7736 185.295 77.188 184.771 76.5882 184.249L76.5464 184.214C76.3389 184.036 76.3147 183.724 76.4927 183.516C76.66 183.321 76.9491 183.288 77.1543 183.435C77.5062 183.687 77.8692 183.929 78.2129 184.201C78.5234 184.513 78.8771 184.782 79.151 185.138C79.7539 185.795 80.2232 186.593 80.5594 187.436C80.8718 188.293 81.0011 189.205 80.9878 190.1C80.975 191.008 80.8162 191.863 80.4351 192.74C80.3127 193.013 79.9929 193.135 79.7202 193.012C79.4648 192.898 79.3413 192.61 79.4269 192.35L79.445 192.295Z" fill="#010103"/>
<path opacity="0.3" fill-rule="evenodd" clip-rule="evenodd" d="M77.2764 193.126C77.483 192.394 77.5703 191.518 77.5338 190.708C77.4894 189.886 77.3241 189.069 77.0076 188.309C76.6925 187.552 76.3177 186.804 75.7814 186.153C75.2685 185.489 74.65 184.902 74.016 184.32L73.9794 184.286C73.7777 184.101 73.7644 183.787 73.9495 183.586C74.1254 183.394 74.418 183.373 74.6198 183.53C74.9854 183.815 75.3654 184.086 75.7229 184.389C76.0452 184.73 76.4126 185.029 76.6976 185.411C77.3234 186.122 77.815 186.96 78.1941 187.843C78.5462 188.742 78.7229 189.705 78.7545 190.664C78.7861 191.636 78.6598 192.565 78.2898 193.525C78.1823 193.805 77.8676 193.945 77.5877 193.836C77.3243 193.735 77.1851 193.451 77.2595 193.185L77.2764 193.126Z" fill="#010103"/>
</g>
<path fill-rule="evenodd" clip-rule="evenodd" d="M61.2562 178.826C63.0566 178.081 64.9326 179.479 62.877 180.897C60.8216 182.315 60.2338 180.977 56.489 184.175C56.3275 182.052 59.4562 179.571 61.2562 178.826Z" fill="#010103"/>
<path opacity="0.4" fill-rule="evenodd" clip-rule="evenodd" d="M88.6746 186.966C88.6746 186.966 88.498 187.464 86.7329 188.257C84.9673 189.05 76.3974 191.485 76.3974 191.485L76.5336 193.252L87.4497 189.551C87.4497 189.551 88.7959 187.646 88.6746 186.966Z" fill="#010103"/>
<path d="M60.1289 248.544H67.2688C71.4088 248.544 73.4788 250.844 73.4788 255.444C73.4788 259.844 71.3088 262.044 66.9688 262.044H64.5389V272.844H60.1289V248.544ZM66.2488 258.924C67.4488 258.924 68.2588 258.674 68.6788 258.174C69.0988 257.654 69.3088 256.734 69.3088 255.414C69.3088 254.454 69.2388 253.724 69.0988 253.224C68.9588 252.704 68.6688 252.314 68.2288 252.054C67.8088 251.794 67.1488 251.664 66.2488 251.664H64.5389V258.924H66.2488Z" fill="white"/>
<path d="M75.9491 248.544H80.359V269.814H86.269V272.844H75.9491V248.544Z" fill="white"/>
<path d="M92.2059 248.544H96.9458L101.806 272.844H97.6958L96.7358 267.234H92.5059L91.5159 272.844H87.3459L92.2059 248.544ZM96.2558 264.414L94.6058 254.214L92.9559 264.414H96.2558Z" fill="white"/>
<path d="M104.25 248.544H107.34L113.249 262.404V248.544H116.909V272.844H113.969L108.03 258.324V272.844H104.25V248.544Z" fill="white"/>
<path d="M120.597 248.544H123.687L129.597 262.404V248.544H133.257V272.844H130.317L124.377 258.324V272.844H120.597V248.544Z" fill="white"/>
<path d="M137.065 248.544H141.445V272.844H137.065V248.544Z" fill="white"/>
<path d="M145.206 248.544H148.296L154.206 262.404V248.544H157.866V272.844H154.926L148.986 258.324V272.844H145.206V248.544Z" fill="white"/>
<path d="M167.644 273.174C165.344 273.174 163.684 272.464 162.664 271.044C161.664 269.604 161.164 267.534 161.164 264.834V256.674C161.164 253.894 161.684 251.804 162.724 250.404C163.764 248.984 165.554 248.274 168.094 248.274C170.494 248.274 172.214 248.874 173.254 250.074C174.294 251.254 174.814 253.014 174.814 255.354V256.614H170.584V255.234C170.584 254.354 170.524 253.654 170.404 253.134C170.304 252.614 170.074 252.214 169.714 251.934C169.374 251.654 168.854 251.514 168.154 251.514C167.414 251.514 166.864 251.694 166.504 252.054C166.144 252.414 165.904 252.874 165.784 253.434C165.684 253.994 165.634 254.724 165.634 255.624V265.794C165.634 267.174 165.814 268.204 166.174 268.884C166.554 269.564 167.254 269.904 168.274 269.904C169.274 269.904 169.964 269.544 170.344 268.824C170.744 268.104 170.944 267.024 170.944 265.584V263.304H168.334V260.514H174.934V272.844H172.054L171.754 270.474C170.994 272.274 169.624 273.174 167.644 273.174Z" fill="white"/>
<path d="M76.5312 55.8372L69.808 27.2538L86.0348 25.4612L126.201 87.4607L134.201 87.4607L142.747 125.345L141.867 152.127L128.831 177.273L91.368 188.96L51.0903 111.91L61.6735 108.327L56.6406 70.182L76.5312 55.8372Z" fill="black" fill-opacity="0.5"/>
<path d="M63.7256 44.6375L57.0024 16.054L74.5343 10.0864L145.321 76.475L123.678 86.0444L129.941 114.145L109.591 128.007L116.026 166.073L93.7008 162.96L38.2847 100.711L48.8679 97.1272L43.835 58.9822L63.7256 44.6375Z" fill="#CDC3B3"/>
<path d="M116.034 166.085L48.8684 97.1272L34.3685 100.46L32.7019 103.544L31.1185 101.377L19.8687 103.794L53.535 139.293L57.7433 143.731L60.6641 140.911L61.9516 148.168L70.3682 157.043L81.0764 164.543L91.7013 169.689L101.701 170.626L116.034 166.085Z" fill="#BDB19D"/>
<path d="M130.368 114.127L63.8686 44.1278L43.7871 58.9361L109.597 128.012L130.368 114.127Z" fill="#BDB19D"/>
<path d="M123.743 86.169L146.023 76.1132L112.773 41.1136L96.1482 23.6137L91.992 19.2388L85.3267 17.003L87.8358 14.8638L83.6795 10.4888L79.5233 6.11389L56.9756 16.0407L123.743 86.169Z" fill="#BDB19D"/>
<path d="M176.617 93.5023L197.867 81.7941C197.867 81.7941 199.117 81.7941 200.159 83.2941C201.2 84.794 201.2 85.9607 201.2 85.9607L179.45 97.8356L176.617 93.5023Z" fill="#C4C4C4"/>
<path d="M176.617 93.5023L197.867 81.7941C197.867 81.7941 199.117 81.7941 200.159 83.2941C201.2 84.794 201.2 85.9607 201.2 85.9607L194.7 89.2107L176.617 93.5023Z" fill="black" fill-opacity="0.2"/>
<path d="M182.437 91.873L194.157 85.6956L195.187 87.6371L183.811 93.6747L182.437 91.873Z" fill="#E02828"/>
<path d="M174.567 94.471L172.899 97.3516L171.218 98.8612L170.7 99.6516L171.078 100.065L172.264 99.8952L174.096 99.0177L177.844 98.909L180.326 97.5155L176.924 93.1008L174.567 94.471Z" fill="#E02828"/>
<rect x="170.838" y="99.5154" width="0.520581" height="1.41975" transform="rotate(58.2686 170.838 99.5154)" fill="#C1000C"/>
<path d="M177.784 98.9189L174.576 94.4814L172.867 97.4397L174.076 99.0231L177.784 98.9189Z" fill="#C1000C"/>
<path d="M184.029 91.5415L184.27 91.4144L184.311 91.4922C184.343 91.3954 184.396 91.3274 184.47 91.2882C184.553 91.2445 184.629 91.2479 184.699 91.2982C184.77 91.3485 184.829 91.419 184.877 91.5097L185.06 91.8563C185.118 91.9659 185.145 92.0646 185.142 92.1523C185.14 92.2395 185.097 92.3049 185.015 92.3485C184.949 92.3834 184.867 92.3873 184.77 92.3603L184.988 92.7723L184.747 92.8994L184.029 91.5415ZM184.836 92.2282C184.87 92.2101 184.884 92.1815 184.879 92.1422C184.874 92.1024 184.856 92.0524 184.824 91.9923L184.63 91.6245C184.602 91.5715 184.573 91.5336 184.545 91.511C184.516 91.4884 184.485 91.4861 184.451 91.5042C184.415 91.5229 184.388 91.556 184.37 91.6036L184.711 92.2489C184.757 92.255 184.798 92.2481 184.836 92.2282ZM185.728 91.9712C185.615 92.031 185.516 92.0437 185.43 92.0093C185.343 91.9737 185.267 91.894 185.201 91.7702L185.041 91.4661C184.975 91.3412 184.952 91.2335 184.972 91.1429C184.993 91.0518 185.059 90.9766 185.171 90.9174C185.287 90.8564 185.385 90.8458 185.467 90.8857C185.549 90.9249 185.625 91.01 185.694 91.1408L185.772 91.2876L185.365 91.5026L185.472 91.7042C185.498 91.7537 185.524 91.7859 185.55 91.8008C185.577 91.8151 185.607 91.8138 185.639 91.797C185.669 91.7808 185.685 91.7587 185.687 91.7306C185.689 91.7007 185.679 91.6634 185.655 91.6186L185.609 91.5319L185.836 91.4123L185.873 91.483C185.928 91.5879 185.944 91.6821 185.921 91.7655C185.896 91.8478 185.832 91.9164 185.728 91.9712ZM185.481 91.2897L185.43 91.1925C185.402 91.1394 185.375 91.1051 185.351 91.0896C185.325 91.0729 185.296 91.0732 185.263 91.0907C185.229 91.1088 185.212 91.1336 185.212 91.1652C185.212 91.1968 185.23 91.2462 185.265 91.3134L185.303 91.3841L185.481 91.2897ZM186.501 91.5579C186.408 91.6072 186.331 91.6197 186.268 91.5955C186.207 91.5706 186.152 91.514 186.106 91.4256L185.783 90.8156L185.681 90.8698L185.597 90.7125L185.7 90.6582L185.538 90.3524L185.781 90.2243L185.942 90.5302L186.096 90.4488L186.179 90.6062L186.025 90.6875L186.337 91.2763C186.355 91.3105 186.375 91.3315 186.397 91.3393C186.421 91.3466 186.448 91.3418 186.48 91.3249C186.51 91.3093 186.533 91.2939 186.551 91.2786L186.649 91.4642C186.606 91.4974 186.557 91.5287 186.501 91.5579ZM187.089 91.2476C186.995 91.2968 186.918 91.3093 186.855 91.2851C186.794 91.2602 186.74 91.2036 186.693 91.1152L186.37 90.5052L186.268 90.5594L186.185 90.4021L186.287 90.3478L186.125 90.042L186.368 89.9139L186.529 90.2198L186.683 90.1384L186.766 90.2958L186.613 90.3771L186.924 90.9659C186.942 91.0001 186.962 91.0211 186.984 91.0289C187.008 91.0362 187.035 91.0314 187.067 91.0145C187.097 90.999 187.12 90.9835 187.138 90.9682L187.236 91.1539C187.193 91.187 187.144 91.2183 187.089 91.2476ZM186.649 89.6928L186.889 89.5656L186.995 89.7654L186.755 89.8926L186.649 89.6928ZM186.841 90.0552L187.081 89.9281L187.621 90.95L187.381 91.0772L186.841 90.0552ZM187.272 89.8271L187.512 89.6999L187.566 89.8007C187.606 89.6799 187.668 89.5974 187.752 89.5532C187.809 89.5226 187.864 89.5211 187.914 89.5486C187.966 89.5754 188.009 89.6213 188.044 89.6861L188.474 90.4994L188.233 90.6265L187.828 89.861C187.811 89.828 187.793 89.8066 187.774 89.7969C187.757 89.7865 187.735 89.7882 187.709 89.8019C187.681 89.8169 187.652 89.853 187.624 89.9103L188.053 90.7219L187.812 90.849L187.272 89.8271ZM189.128 90.5833C189.02 90.6406 188.924 90.669 188.843 90.6685C188.762 90.6691 188.703 90.6359 188.668 90.5687C188.644 90.5239 188.637 90.4769 188.648 90.4278C188.658 90.3798 188.681 90.3331 188.716 90.2876C188.671 90.2963 188.632 90.2951 188.599 90.284C188.566 90.271 188.541 90.248 188.524 90.215C188.504 90.1773 188.495 90.1396 188.498 90.102C188.502 90.0637 188.514 90.0172 188.535 89.9624C188.483 89.9523 188.436 89.9298 188.393 89.895C188.351 89.8584 188.312 89.8053 188.275 89.7357C188.213 89.619 188.194 89.5154 188.217 89.4248C188.241 89.3336 188.307 89.2597 188.414 89.2029C188.518 89.1481 188.61 89.14 188.691 89.1788C188.693 89.1567 188.7 89.1293 188.713 89.0968C188.726 89.0643 188.744 89.0332 188.766 89.0035L188.792 88.9716L188.916 89.0708C188.898 89.0879 188.875 89.1137 188.847 89.1484C188.818 89.1818 188.798 89.2082 188.787 89.2276C188.81 89.2455 188.834 89.2703 188.86 89.302C188.886 89.3336 188.907 89.3653 188.924 89.3971C188.983 89.5091 189.003 89.61 188.984 89.6999C188.965 89.7887 188.901 89.8617 188.793 89.919C188.745 89.9439 188.696 89.9612 188.643 89.9707C188.639 90.0108 188.641 90.0397 188.651 90.0573C188.658 90.0715 188.671 90.0789 188.69 90.0797C188.708 90.0793 188.734 90.0721 188.769 90.0582L188.994 89.9663C189.168 89.8968 189.296 89.9392 189.378 90.0936C189.427 90.1867 189.432 90.2734 189.391 90.3536C189.352 90.4344 189.265 90.511 189.128 90.5833ZM188.712 89.767C188.752 89.7458 188.771 89.7164 188.767 89.6789C188.764 89.6414 188.743 89.585 188.703 89.5095C188.664 89.4353 188.629 89.3856 188.599 89.3607C188.569 89.3357 188.534 89.3338 188.494 89.355C188.454 89.3762 188.436 89.4064 188.438 89.4457C188.44 89.4839 188.461 89.5406 188.501 89.6161C188.539 89.6868 188.573 89.7349 188.605 89.7605C188.636 89.786 188.672 89.7882 188.712 89.767ZM189.059 90.3889C189.126 90.3534 189.172 90.3202 189.196 90.2892C189.223 90.2588 189.227 90.2271 189.209 90.1941C189.195 90.1658 189.173 90.1502 189.144 90.1472C189.117 90.1449 189.074 90.1557 189.014 90.1797L188.831 90.2563C188.818 90.287 188.811 90.3138 188.807 90.3365C188.805 90.3604 188.809 90.383 188.821 90.4042C188.836 90.4336 188.862 90.4477 188.899 90.4462C188.936 90.4448 188.99 90.4257 189.059 90.3889ZM189.797 89.5778L189.862 88.8445C189.863 88.8319 189.864 88.8209 189.865 88.8113C189.866 88.8017 189.867 88.7931 189.867 88.7853C189.875 88.6969 189.877 88.6255 189.874 88.5713C189.871 88.5171 189.855 88.4623 189.825 88.4069C189.767 88.2961 189.699 88.2613 189.621 88.3024C189.568 88.3305 189.542 88.3707 189.542 88.4232C189.543 88.4757 189.561 88.5367 189.598 88.6062L189.63 88.6663L189.39 88.7935L189.356 88.7298C189.285 88.5955 189.259 88.4747 189.28 88.3674C189.3 88.2584 189.376 88.1696 189.505 88.1011C189.626 88.0375 189.734 88.0222 189.832 88.0552C189.929 88.087 190.008 88.1618 190.07 88.2797C190.109 88.3528 190.13 88.4245 190.134 88.4947C190.139 88.5644 190.137 88.6545 190.128 88.7651L190.124 88.8081L190.063 89.408L190.498 89.1781L190.602 89.3743L189.889 89.751L189.797 89.5778ZM191.177 89.0972C191.056 89.1614 190.943 89.1726 190.84 89.1308C190.736 89.0891 190.651 89.0051 190.584 88.879L190.249 88.2442C190.179 88.1134 190.156 87.9947 190.178 87.888C190.2 87.7813 190.274 87.6946 190.4 87.628C190.524 87.5625 190.637 87.551 190.739 87.5934C190.841 87.6346 190.926 87.7201 190.995 87.8498L191.33 88.4845C191.397 88.6106 191.419 88.7282 191.395 88.8373C191.371 88.9464 191.298 89.033 191.177 89.0972ZM191.066 88.8868C191.149 88.8426 191.155 88.7509 191.081 88.6118L190.749 87.9842C190.716 87.9217 190.68 87.8757 190.642 87.8461C190.605 87.8148 190.561 87.8122 190.511 87.8384C190.461 87.8652 190.438 87.903 190.442 87.9518C190.446 87.9994 190.465 88.0544 190.498 88.1169L190.83 88.7446C190.86 88.8023 190.895 88.8472 190.935 88.8791C190.975 88.9092 191.019 88.9118 191.066 88.8868ZM192.121 88.5979C192 88.6621 191.888 88.6733 191.784 88.6315C191.681 88.5897 191.595 88.5058 191.529 88.3796L191.193 87.7449C191.124 87.614 191.1 87.4953 191.122 87.3886C191.144 87.282 191.219 87.1953 191.345 87.1286C191.468 87.0632 191.581 87.0517 191.684 87.0941C191.786 87.1353 191.871 87.2207 191.939 87.3504L192.275 87.9851C192.342 88.1113 192.363 88.2289 192.339 88.338C192.315 88.447 192.243 88.5337 192.121 88.5979ZM192.01 88.3875C192.094 88.3432 192.099 88.2516 192.025 88.1125L191.694 87.4848C191.661 87.4223 191.625 87.3763 191.587 87.3468C191.549 87.3154 191.505 87.3128 191.456 87.339C191.405 87.3658 191.382 87.4036 191.387 87.4524C191.391 87.5 191.409 87.5551 191.443 87.6175L191.774 88.2452C191.805 88.303 191.84 88.3478 191.879 88.3797C191.919 88.4098 191.963 88.4124 192.01 88.3875ZM193.066 88.0985C192.945 88.1627 192.832 88.1739 192.729 88.1321C192.625 88.0903 192.54 88.0064 192.473 87.8803L192.138 87.2455C192.068 87.1147 192.045 86.9959 192.067 86.8893C192.089 86.7826 192.163 86.6959 192.289 86.6292C192.413 86.5638 192.526 86.5523 192.628 86.5947C192.73 86.6359 192.815 86.7214 192.884 86.851L193.219 87.4858C193.286 87.6119 193.307 87.7295 193.284 87.8386C193.26 87.9477 193.187 88.0343 193.066 88.0985ZM192.955 87.8881C193.038 87.8439 193.043 87.7522 192.97 87.6131L192.638 86.9854C192.605 86.923 192.569 86.877 192.531 86.8474C192.493 86.8161 192.45 86.8135 192.4 86.8396C192.35 86.8664 192.327 86.9042 192.331 86.953C192.335 87.0007 192.354 87.0557 192.387 87.1182L192.719 87.7459C192.749 87.8036 192.784 87.8484 192.824 87.8804C192.864 87.9105 192.908 87.913 192.955 87.8881Z" fill="white"/>
<path fill-rule="evenodd" clip-rule="evenodd" d="M210.258 72.4413C206.376 66.6517 200.24 65.2867 191.851 68.3462C196.392 71.8486 198.626 73.7445 198.553 74.0339C198.43 74.5207 186.63 70.7373 184.684 70.4986C178.528 69.7377 161.286 82.9645 161.286 82.9645C172.828 87.7229 181.959 90.0002 188.679 89.7966C198.97 89.4847 210.491 72.0013 210.258 72.4413Z" fill="#010103"/>
<path d="M38.6255 120.498L64.7017 113.627L59.7017 75.1274L77.5349 58.4609L71.8683 31.2945L92.1845 22.485" stroke="#A39988" stroke-width="2" stroke-linecap="round"/>
<path d="M53.354 136.833L80.0521 129.46L75.0521 90.9606L91.8678 74.7941L87.2187 47.1277L109.885 37.6278" stroke="#A39988" stroke-width="2" stroke-linecap="round"/>
<path d="M71.0409 154.077C70.5069 154.218 70.1885 154.765 70.3296 155.299C70.4707 155.833 71.018 156.151 71.5519 156.01L71.0409 154.077ZM97.9819 147.99L98.2374 148.957L99.0867 148.733L98.9736 147.862L97.9819 147.99ZM92.982 109.491L92.3628 108.705L91.9172 109.057L91.9903 109.62L92.982 109.491ZM111.201 95.1272L111.82 95.9125L112.305 95.5304L112.181 94.926L111.201 95.1272ZM105.149 65.6579L104.762 64.7356L104.004 65.0535L104.169 65.859L105.149 65.6579ZM71.5519 156.01L98.2374 148.957L97.7264 147.024L71.0409 154.077L71.5519 156.01ZM98.9736 147.862L93.9736 109.362L91.9903 109.62L96.9902 148.119L98.9736 147.862ZM93.6011 110.276L111.82 95.9125L110.582 94.3419L92.3628 108.705L93.6011 110.276ZM112.181 94.926L106.128 65.4567L104.169 65.859L110.221 95.3284L112.181 94.926ZM105.535 66.5801L128.201 57.0802L127.428 55.2357L104.762 64.7356L105.535 66.5801Z" fill="#A39988"/>
<path fill-rule="evenodd" clip-rule="evenodd" d="M111.846 29.8093C105.974 33.5647 104.476 39.6693 107.353 48.123C110.953 43.659 112.897 41.4666 113.184 41.5459C113.668 41.6793 109.63 53.3949 109.349 55.3344C108.455 61.4729 121.304 78.9983 121.304 78.9983C126.312 67.5613 128.787 58.4819 128.729 51.7598C128.641 41.4642 111.411 29.5667 111.846 29.8093Z" fill="#010103"/>
<path d="M92.368 164.96C87.4347 167.093 80.6459 164.071 77.8682 162.293L86.3125 168.515C88.7431 169.752 95.418 172.777 102.618 170.377C98.2846 170.377 94.7013 168.793 92.368 164.96Z" fill="white"/>
<path d="M64.7788 298.068C64.7788 297.666 64.6356 297.354 64.3491 297.13C64.0679 296.906 63.5705 296.674 62.8569 296.435C62.1434 296.195 61.5601 295.963 61.1069 295.739C59.633 295.015 58.896 294.021 58.896 292.755C58.896 292.125 59.0783 291.57 59.4429 291.091C59.8127 290.607 60.3335 290.232 61.0054 289.966C61.6772 289.695 62.4325 289.56 63.271 289.56C64.0887 289.56 64.8205 289.706 65.4663 289.997C66.1174 290.289 66.6226 290.706 66.9819 291.247C67.3413 291.784 67.521 292.398 67.521 293.091H64.7866C64.7866 292.627 64.6434 292.268 64.3569 292.013C64.0757 291.758 63.6929 291.63 63.2085 291.63C62.7189 291.63 62.3309 291.739 62.0444 291.958C61.7632 292.172 61.6226 292.445 61.6226 292.778C61.6226 293.07 61.7788 293.336 62.0913 293.575C62.4038 293.81 62.9533 294.054 63.7397 294.31C64.5262 294.56 65.172 294.831 65.6772 295.122C66.9064 295.831 67.521 296.807 67.521 298.052C67.521 299.047 67.146 299.828 66.396 300.396C65.646 300.963 64.6174 301.247 63.3101 301.247C62.3882 301.247 61.5522 301.083 60.8022 300.755C60.0575 300.422 59.495 299.969 59.1147 299.396C58.7397 298.818 58.5522 298.153 58.5522 297.403H61.3022C61.3022 298.013 61.4585 298.463 61.771 298.755C62.0887 299.041 62.6017 299.185 63.3101 299.185C63.7632 299.185 64.12 299.088 64.3804 298.896C64.646 298.698 64.7788 298.422 64.7788 298.068Z" fill="#010103"/>
<path d="M84.4619 296.271H80.1494V298.982H85.2432V301.091H77.4072V289.716H85.2588V291.833H80.1494V294.232H84.4619V296.271Z" fill="#010103"/>
<path d="M100.708 298.068C100.708 297.666 100.564 297.354 100.278 297.13C99.9966 296.906 99.4992 296.674 98.7857 296.435C98.0721 296.195 97.4888 295.963 97.0357 295.739C95.5617 295.015 94.8247 294.021 94.8247 292.755C94.8247 292.125 95.007 291.57 95.3716 291.091C95.7414 290.607 96.2622 290.232 96.9341 289.966C97.606 289.695 98.3612 289.56 99.1997 289.56C100.017 289.56 100.749 289.706 101.395 289.997C102.046 290.289 102.551 290.706 102.911 291.247C103.27 291.784 103.45 292.398 103.45 293.091H100.715C100.715 292.627 100.572 292.268 100.286 292.013C100.004 291.758 99.6216 291.63 99.1372 291.63C98.6477 291.63 98.2596 291.739 97.9732 291.958C97.6919 292.172 97.5513 292.445 97.5513 292.778C97.5513 293.07 97.7076 293.336 98.0201 293.575C98.3326 293.81 98.882 294.054 99.6685 294.31C100.455 294.56 101.101 294.831 101.606 295.122C102.835 295.831 103.45 296.807 103.45 298.052C103.45 299.047 103.075 299.828 102.325 300.396C101.575 300.963 100.546 301.247 99.2388 301.247C98.3169 301.247 97.481 301.083 96.731 300.755C95.9862 300.422 95.4237 299.969 95.0435 299.396C94.6685 298.818 94.481 298.153 94.481 297.403H97.231C97.231 298.013 97.3872 298.463 97.6997 298.755C98.0175 299.041 98.5305 299.185 99.2388 299.185C99.6919 299.185 100.049 299.088 100.309 298.896C100.575 298.698 100.708 298.422 100.708 298.068Z" fill="#010103"/>
<path d="M119.203 298.068C119.203 297.666 119.06 297.354 118.773 297.13C118.492 296.906 117.995 296.674 117.281 296.435C116.568 296.195 115.984 295.963 115.531 295.739C114.057 295.015 113.32 294.021 113.32 292.755C113.32 292.125 113.503 291.57 113.867 291.091C114.237 290.607 114.758 290.232 115.43 289.966C116.102 289.695 116.857 289.56 117.695 289.56C118.513 289.56 119.245 289.706 119.891 289.997C120.542 290.289 121.047 290.706 121.406 291.247C121.766 291.784 121.945 292.398 121.945 293.091H119.211C119.211 292.627 119.068 292.268 118.781 292.013C118.5 291.758 118.117 291.63 117.633 291.63C117.143 291.63 116.755 291.739 116.469 291.958C116.188 292.172 116.047 292.445 116.047 292.778C116.047 293.07 116.203 293.336 116.516 293.575C116.828 293.81 117.378 294.054 118.164 294.31C118.951 294.56 119.596 294.831 120.102 295.122C121.331 295.831 121.945 296.807 121.945 298.052C121.945 299.047 121.57 299.828 120.82 300.396C120.07 300.963 119.042 301.247 117.734 301.247C116.813 301.247 115.977 301.083 115.227 300.755C114.482 300.422 113.919 299.969 113.539 299.396C113.164 298.818 112.977 298.153 112.977 297.403H115.727C115.727 298.013 115.883 298.463 116.195 298.755C116.513 299.041 117.026 299.185 117.734 299.185C118.188 299.185 118.544 299.088 118.805 298.896C119.07 298.698 119.203 298.422 119.203 298.068Z" fill="#010103"/>
<path d="M134.753 301.091H132.019V289.716H134.753V301.091Z" fill="#010103"/>
<path d="M154.773 295.638C154.773 296.747 154.567 297.729 154.155 298.583C153.744 299.437 153.158 300.096 152.398 300.56C151.642 301.018 150.78 301.247 149.812 301.247C148.843 301.247 147.983 301.026 147.233 300.583C146.483 300.135 145.898 299.497 145.476 298.669C145.059 297.841 144.84 296.89 144.819 295.818V295.177C144.819 294.062 145.023 293.081 145.429 292.232C145.84 291.377 146.426 290.719 147.187 290.255C147.952 289.791 148.822 289.56 149.796 289.56C150.76 289.56 151.619 289.789 152.374 290.247C153.129 290.706 153.715 291.359 154.132 292.208C154.554 293.052 154.767 294.021 154.773 295.114V295.638ZM151.983 295.161C151.983 294.031 151.793 293.174 151.413 292.591C151.038 292.002 150.499 291.708 149.796 291.708C148.421 291.708 147.694 292.739 147.616 294.802L147.608 295.638C147.608 296.752 147.793 297.609 148.163 298.208C148.533 298.807 149.082 299.107 149.812 299.107C150.504 299.107 151.038 298.812 151.413 298.224C151.788 297.635 151.978 296.789 151.983 295.685V295.161Z" fill="#010103"/>
<path d="M174.167 301.091H171.44L167.409 294.013V301.091H164.667V289.716H167.409L171.432 296.794V289.716H174.167V301.091Z" fill="#010103"/>
</svg>
