<svg width="989" height="850" viewBox="0 0 989 850" fill="none" xmlns="http://www.w3.org/2000/svg">
<g clip-path="url(#clip0)">
<path fill-rule="evenodd" clip-rule="evenodd" d="M593.958 640.983L611.627 677.075C611.627 677.075 621.208 672.755 630.644 678.267C640.599 673.556 654.964 675.719 663.264 683.781C671.564 691.841 675.097 704.883 675.097 704.883C675.097 704.883 679.697 736.892 666.014 747.666C662.616 750.342 662.112 753.748 655.967 741.225C649.821 728.702 596.803 723.296 596.803 723.296C596.803 723.296 571.955 735.174 563.98 720.369C559.658 709.74 563.222 698.174 563.222 698.174C563.222 698.174 566.588 683.781 574.487 680.927C570.692 663.259 565.159 647.172 573.069 641.698C578.465 637.964 590.907 629.558 593.958 640.983Z" fill="#010103"/>
<path d="M482.425 94.3209C507.825 234.042 542.715 312.307 587.094 329.114C620.066 341.602 606.173 416.229 525.197 518.507C513.817 532.881 521.922 576.64 502.452 581.505C486.238 585.557 460.12 557.807 439.193 577.342C410.85 567.529 344.285 513.4 373.2 338.155C384.42 270.152 403.687 209.065 434.143 153.842C444.876 134.381 460.97 114.541 482.425 94.3209Z" fill="#010103"/>
<path fill-rule="evenodd" clip-rule="evenodd" d="M560.927 616.358L481.099 593.602C439.249 582.921 414.423 573.663 406.622 565.827C394.921 554.073 387.584 541.659 393.206 537.605C402.578 530.847 416.099 524.96 433.768 519.943C424.411 520.421 420.288 519.939 421.399 518.496C423.921 515.222 437.345 505.537 461.67 489.441C471.137 479.995 476.947 473.778 479.099 470.79C481.835 466.993 464.22 468.404 453.64 468.404C466.749 450.29 481.099 442.419 497.843 438.431C501.669 435.328 505.726 430.931 510.014 425.238C502.955 423.617 497.731 422.807 494.341 422.807C498.955 414.779 511.299 403.924 531.374 390.241L517.133 394.277C522.037 385.219 527.041 378.228 532.145 373.306C537.249 368.384 542.17 365.105 546.907 363.47C556.164 342.431 561.945 328.363 564.251 321.264C566.558 314.166 566.742 309.874 564.805 308.387L530.986 268.464L634.951 278.72L643.817 307.412L663.02 425.701L668.345 632.088L612.772 658.76C606.49 664.092 600.073 662.891 597.861 659.795L560.927 616.358Z" fill="#CECDC4"/>
<path fill-rule="evenodd" clip-rule="evenodd" d="M509.059 278.427C517.46 251.399 580.33 230.806 608.294 239.892C626.937 245.949 637.333 267.645 639.482 304.978C641.806 315.7 638.52 364.536 631.787 393.334C633.835 397.73 641.338 410.506 640.579 416.355C636.802 410.325 632.052 408.508 632.052 408.508L628.801 428.105C628.801 428.105 639.347 450.726 638.176 454.94C634.525 452.006 628.98 449.25 628.375 448.953L628.321 448.927C628.321 448.927 627.472 473.486 626.91 479.322C632.913 487.112 641.608 512.8 641.608 512.8C641.608 512.8 625.289 495.078 625.429 503.363C625.57 511.638 628.662 542.379 628.662 542.379C628.662 542.379 638.243 559.724 642.704 581.561C637.708 575.43 632.278 569.368 628.903 565.68C627.677 564.339 625.432 565.092 625.296 566.907C623.133 595.828 613.218 639.143 605.874 652.404C598.11 666.424 567.377 665.762 565.004 658.23C563.26 652.689 556.429 627.175 535.701 611.308C553.125 633.768 555.015 668.092 555.015 668.092C547.288 667.699 539.812 666.933 532.62 665.875L519.427 634.947L525.487 664.717C513.091 662.515 501.621 659.488 491.258 656.096L502.499 626.653L485.087 653.989C475.254 650.495 466.548 646.734 459.146 643.157L480.507 620.165L452.761 639.959C438.711 632.665 430.828 626.833 430.828 626.833C430.828 626.833 454.005 602.635 481.727 594.769C463.515 593.855 401.006 576.475 401.323 566.907C401.42 563.992 393.223 543.444 401.323 538.389C418.839 527.457 439.485 522.471 452.085 516.4C453.589 515.676 452.208 512.509 450.201 512.927C445.281 513.953 438.238 515.506 431.439 517.305C447.883 502.262 465.828 493.861 465.828 493.861C465.828 493.861 486.399 470.809 491.378 464.197C496.36 457.576 472.742 462.321 472.742 462.321C472.742 462.321 494.876 446.65 504.311 443.877C507.285 438.825 521.036 418.457 521.036 418.457C521.036 418.457 514.481 417.287 509.527 417.529C511.056 413.432 532.885 401.329 532.885 401.329L541.774 383.565C541.774 383.565 536.862 382.243 530.262 384.9C533.085 379.721 550.907 371.443 550.907 371.443C550.907 371.443 557.862 358.624 561.202 350.598C564.315 343.122 567.839 329.331 568.305 327.485L568.313 327.456L568.284 327.489C566.875 328.883 548.062 331.489 534.95 322.837L534.533 322.557C517.617 310.972 506.895 285.362 509.059 278.427Z" fill="#010103"/>
<path d="M827.548 385.308C825.048 487.45 782.772 519.678 777.548 528.808C777.548 528.808 791.048 540.308 818.548 551.308C846.048 562.308 894.048 572.308 894.048 572.308C859.548 600.808 749.548 601.808 726.139 590.729C726.139 590.729 713.599 604.796 708.276 609.683C708.276 609.683 720.048 628.308 731.048 637.308C742.048 646.308 772.24 659.527 772.24 659.527C751.048 665.027 700.548 664.308 665.205 651.534C642.828 661.19 619.892 661.056 614.078 660.842C613.398 660.816 612.982 660.142 613.275 659.527C622.136 640.905 632.511 606.96 632.017 583.518C638.243 589.834 649.953 607.408 659.612 628.899C657.367 596.621 641.612 548.515 632.063 520.846C632.107 519.263 632.148 517.694 632.188 516.124L632.217 515.002C637.28 520.76 648.183 532.314 655.334 548.219C653.714 524.899 643.321 494.594 633.867 470.725C634.024 467.512 634.195 464.329 634.372 461.208C638.41 466.966 647.977 476.656 652.825 487.45C651.626 470.139 648.058 449.341 636.43 428.855C636.605 426.436 636.793 424.02 636.958 421.691C640.511 427.13 649.096 434.59 653.183 443.698C652.149 428.761 648.73 408.066 638.464 393.421C641.805 375.557 644.429 357.973 645.38 340.479C645.88 331.292 644.918 321.129 644.356 311.964C659.606 344.01 675.132 361.122 690.933 363.3C714.634 366.567 740.682 325.79 731.761 267.311C726.82 234.917 756.894 209.479 756.894 209.479C761.421 205.414 768.624 207.412 770.411 213.226C770.411 213.226 830.048 283.166 827.548 385.308Z" fill="black"/>
<path fill-rule="evenodd" clip-rule="evenodd" d="M542.956 280.172C545.256 273.094 552.881 269.203 559.955 271.501C563.159 272.543 564.998 276.211 566.62 278.895C568.578 282.136 569.893 284.643 568.634 288.516C566.334 295.595 558.697 299.482 551.611 297.18C544.537 294.881 540.656 287.252 542.956 280.172Z" fill="white"/>
<path d="M552.841 292.204C557.811 292.204 561.841 288.175 561.841 283.204C561.841 278.234 557.811 274.204 552.841 274.204C547.87 274.204 543.841 278.234 543.841 283.204C543.841 288.175 547.87 292.204 552.841 292.204Z" fill="#010103"/>
<path fill-rule="evenodd" clip-rule="evenodd" d="M540.175 319.259C550.643 316.8 571.084 319.17 573.152 327.924C573.626 329.935 572.293 331.954 570.329 332.599C567.859 333.41 565.038 334.51 562.019 335.8C562.071 335.629 562.096 335.543 562.096 335.543C562.096 335.543 513.504 352.122 503.57 364.029C493.633 375.934 490.927 393.042 488.579 395.515L462.396 344.819C457.407 335.054 454.738 316.973 464.392 311.57L501.89 289.52L502.034 289.514C502.034 289.514 523.854 274.074 540.175 319.259Z" fill="#D18D1E"/>
<path fill-rule="evenodd" clip-rule="evenodd" d="M520.829 316.727C517.308 319.078 505.504 306.3 502.031 302.401C501.642 301.965 501.932 301.285 502.5 301.286C506.158 301.285 515.768 301.497 519.169 303.676C523.42 306.388 524.98 313.963 520.829 316.727Z" fill="#854205"/>
<path fill-rule="evenodd" clip-rule="evenodd" d="M519.073 313.26C516.278 315.178 505.687 303.464 505.875 302.78C506.062 302.095 515.183 302.482 518.013 304.322C520.854 306.158 521.868 311.346 519.073 313.26Z" fill="#010103"/>
<path fill-rule="evenodd" clip-rule="evenodd" d="M572.778 326.138C572.778 326.138 568.426 328.247 526.214 343.531C518.796 346.217 508.927 359.016 508.927 359.016L572.877 331.804C573.261 331.641 573.569 331.358 573.736 330.979C574.461 329.337 574.219 327.66 572.778 326.138Z" fill="#854605"/>
<path d="M643.136 188.125C651.882 194.393 650.775 205.883 639.815 222.595C635.895 228.572 626.515 238.209 611.675 251.505C610.623 232.69 612.203 219.041 616.414 210.556C618.289 206.779 621.096 203.2 624.833 199.822L629.759 211.189L630.013 195.687C633.75 193.029 638.124 190.509 643.136 188.125Z" fill="#010103"/>
<path d="M611.082 244.292C602.722 236.262 597.728 229.453 596.098 223.866C594.468 218.279 595.404 211.176 598.906 202.556C605.524 201.709 609.83 207.347 611.824 219.47C612.538 223.806 612.29 232.08 611.082 244.292Z" fill="#010103"/>
<path d="M576.328 323.086C570.986 328.118 566.216 330.4 562.017 329.931C555.719 329.228 554.906 333.948 550.022 336.035C545.138 338.122 543.898 336.273 541.087 337.161C538.276 338.05 535.266 340.767 531.602 342.846C527.938 344.925 523.709 343.903 521.103 346.234C518.498 348.564 519.639 350.739 514.212 353.568C510.594 355.454 508.031 358.655 506.525 363.171" stroke="#010103" stroke-width="3"/>
<path fill-rule="evenodd" clip-rule="evenodd" d="M607.241 687.271C607.241 687.271 594.832 679.379 585.856 681.597C576.88 683.815 572.317 690.813 569.451 698.393C566.586 705.974 574.498 724.968 578.791 726.867C583.083 728.767 585.856 722.685 585.856 707.235C585.856 698.393 608.841 697.976 608.841 697.976L607.241 687.271Z" fill="#CC7910"/>
<path fill-rule="evenodd" clip-rule="evenodd" d="M622.64 687.271C622.64 687.271 636.6 679.379 646.7 681.597C656.797 683.815 661.931 690.813 665.154 698.393C668.377 705.974 659.476 724.968 654.648 726.867C649.818 728.767 646.7 722.685 646.7 707.235C646.7 698.393 620.841 697.976 620.841 697.976L622.64 687.271Z" fill="#CC7910"/>
<path fill-rule="evenodd" clip-rule="evenodd" d="M275.841 846.042C275.841 848.341 277.707 850.204 280.009 850.204H708.673C710.975 850.204 712.841 848.341 712.841 846.042V704.366C712.841 702.068 710.975 700.204 708.673 700.204H280.009C277.707 700.204 275.841 702.068 275.841 704.366V846.042Z" fill="#010103"/>
<path fill-rule="evenodd" clip-rule="evenodd" d="M657.298 692.069C653.672 688.555 647.373 690.168 650.858 695.557C654.343 700.946 655.561 700.785 661.832 708.204C664.693 703.209 660.925 695.584 657.298 692.069Z" fill="#010103"/>
<path fill-rule="evenodd" clip-rule="evenodd" d="M591.366 647.166C591.366 647.166 606.927 683.49 615.841 690.735C608.916 697.979 589.471 699.199 579.351 694.092C580.899 680.454 577.618 663.615 575.135 653.51C573.569 647.14 578.46 640.636 584.944 641.244C587.886 641.52 590.447 643.065 591.366 647.166Z" fill="#CC7910"/>
<path fill-rule="evenodd" clip-rule="evenodd" d="M600.862 687.271C600.862 687.271 614.751 679.379 624.798 681.597C634.844 683.815 639.952 690.813 643.157 698.393C646.364 705.974 637.51 724.968 632.705 726.867C627.9 728.767 624.798 722.685 624.798 707.235C624.798 698.921 593.841 700.005 593.841 700.005L600.862 687.271Z" fill="#CC7910"/>
<path fill-rule="evenodd" clip-rule="evenodd" d="M638.841 706.876C638.841 701.643 632.193 699.531 630.65 702.684C629.106 705.836 630.953 711.668 629.841 722.204C635.794 720.518 638.841 712.108 638.841 706.876Z" fill="#010103"/>
<path opacity="0.2" fill-rule="evenodd" clip-rule="evenodd" d="M643.448 700.28C643.448 700.28 641.162 690.617 631.841 685.907C635.966 684.992 640.153 686.667 640.153 686.667C652.85 689.459 655.841 702.204 655.841 702.204L643.448 700.28Z" fill="#010103"/>
<path fill-rule="evenodd" clip-rule="evenodd" d="M581.841 700.302L618.841 702.204C618.841 702.204 592.664 681.031 581.841 700.302Z" fill="#010103"/>
<g opacity="0.3">
<path opacity="0.3" fill-rule="evenodd" clip-rule="evenodd" d="M572.258 652.913C573.304 650.911 574.594 649.318 576.252 647.892C577.882 646.487 579.862 645.346 582.062 644.785C584.259 644.28 586.628 644.349 588.695 645.034C589.786 645.255 590.7 645.819 591.694 646.216C592.608 646.745 593.447 647.366 594.311 647.935C594.995 648.388 595.185 649.309 594.733 649.992C594.314 650.626 593.493 650.835 592.832 650.504L592.649 650.412C591.029 649.605 589.439 648.816 587.797 648.456C586.161 647.99 584.519 648.124 582.981 648.498C581.423 648.845 579.929 649.624 578.606 650.701C577.324 651.777 576.049 653.151 575.128 654.477L575.043 654.599C574.529 655.339 573.513 655.521 572.773 655.008C572.09 654.533 571.882 653.631 572.258 652.913Z" fill="#010103"/>
<path opacity="0.3" fill-rule="evenodd" clip-rule="evenodd" d="M573.318 659.682C574.597 657.589 576.128 655.974 578.021 654.573C579.883 653.19 582.064 652.099 584.432 651.583C586.797 651.132 589.301 651.202 591.547 651.868C592.719 652.081 593.734 652.637 594.821 653.021C595.835 653.542 596.781 654.159 597.748 654.723C598.45 655.142 598.68 656.051 598.26 656.753C597.871 657.408 597.055 657.653 596.377 657.344L596.203 657.263C594.376 656.453 592.573 655.669 590.719 655.305C588.871 654.84 587.011 654.966 585.247 655.316C583.465 655.645 581.749 656.417 580.201 657.495C578.695 658.573 577.196 659.979 576.1 661.375L576.006 661.497C575.46 662.211 574.44 662.347 573.726 661.802C573.066 661.295 572.902 660.38 573.318 659.682Z" fill="#010103"/>
<path opacity="0.3" fill-rule="evenodd" clip-rule="evenodd" d="M574.378 666.451C575.892 664.266 577.663 662.629 579.791 661.251C581.887 659.891 584.268 658.852 586.804 658.381C589.336 657.983 591.977 658.054 594.399 658.7C595.652 658.907 596.769 659.453 597.948 659.826C599.063 660.34 600.114 660.951 601.187 661.509C601.906 661.895 602.177 662.793 601.79 663.513C601.428 664.188 600.617 664.469 599.923 664.183L599.758 664.113C597.723 663.302 595.708 662.522 593.643 662.152C591.581 661.689 589.505 661.808 587.515 662.133C585.508 662.443 583.569 663.21 581.796 664.288C580.066 665.367 578.343 666.806 577.073 668.272L576.969 668.395C576.392 669.082 575.368 669.172 574.681 668.596C574.042 668.057 573.924 667.129 574.378 666.451Z" fill="#010103"/>
<path opacity="0.3" fill-rule="evenodd" clip-rule="evenodd" d="M575.437 673.22C577.185 670.945 579.197 669.284 581.559 667.93C583.888 666.594 586.471 665.606 589.173 665.179C591.874 664.835 594.651 664.907 597.25 665.533C598.584 665.734 599.803 666.271 601.075 666.631C602.289 667.137 603.448 667.743 604.624 668.295C605.362 668.65 605.673 669.535 605.318 670.274C604.984 670.969 604.178 671.286 603.468 671.024L603.311 670.964C601.069 670.151 598.843 669.375 596.565 669.001C594.291 668.539 591.999 668.652 589.781 668.95C587.55 669.243 585.389 670.003 583.391 671.082C581.437 672.163 579.49 673.634 578.045 675.17L577.931 675.294C577.324 675.954 576.295 675.997 575.634 675.39C575.017 674.821 574.944 673.878 575.437 673.22Z" fill="#010103"/>
<path opacity="0.3" fill-rule="evenodd" clip-rule="evenodd" d="M576.497 679.99C578.479 677.622 580.732 675.94 583.329 674.609C585.891 673.297 588.675 672.36 591.545 671.977C594.413 671.687 597.326 671.76 600.102 672.367C601.518 672.559 602.838 673.088 604.202 673.437C605.517 673.935 606.782 674.537 608.061 675.082C608.817 675.404 609.17 676.278 608.847 677.034C608.542 677.751 607.741 678.104 607.014 677.864L606.866 677.815C604.416 676.999 601.978 676.229 599.487 675.85C597.001 675.389 594.492 675.494 592.048 675.768C589.593 676.043 587.21 676.797 584.987 677.877C582.809 678.959 580.638 680.462 579.019 682.068L578.893 682.192C578.256 682.827 577.224 682.823 576.59 682.184C575.993 681.583 575.966 680.628 576.497 679.99Z" fill="#010103"/>
</g>
<path fill-rule="evenodd" clip-rule="evenodd" d="M638.556 705.638C637.65 700.868 632.035 698.894 631.851 705.123C631.666 711.353 634.016 708.202 633.537 721.204C638.32 718.614 639.461 710.407 638.556 705.638Z" fill="#010103"/>
<path fill-rule="evenodd" clip-rule="evenodd" d="M576.841 643.204C576.841 643.204 575.79 644.393 576.277 650.177C576.764 655.963 582.841 681.99 582.841 681.99L578.003 684.204L571.841 650.177C571.841 650.177 574.881 643.875 576.841 643.204Z" fill="#010103"/>
<path fill-rule="evenodd" clip-rule="evenodd" d="M323.929 540.363C310.954 540.363 302.229 548.36 297.096 555.67C294.682 559.107 294.515 566.102 295.958 573.241C297.645 581.588 301.355 589.647 304.277 591.732C305.62 592.689 306.788 593.007 307.795 592.983C309.03 592.954 310.18 592.456 311.233 591.278C312.545 589.811 313.772 586.779 315.381 582.389C316.516 579.294 317.914 575.479 319.866 571.095C321.052 568.431 322.463 566.679 324.105 565.725C325.841 564.716 327.779 564.673 329.737 565.125C338.899 567.24 348.626 579.28 348.626 579.28C348.626 579.28 352.757 584.394 355.675 590.557L348.959 557.878C348.959 557.878 336.903 540.363 323.929 540.363Z" fill="#CC7910" stroke="black" stroke-width="5" stroke-linejoin="round"/>
<path fill-rule="evenodd" clip-rule="evenodd" d="M301.472 568.393C303.029 563.534 309.704 563.151 309.245 569.923C308.785 576.695 307.571 576.927 305.569 586.732C300.343 582.453 299.915 573.252 301.472 568.393Z" fill="#010103"/>
<path fill-rule="evenodd" clip-rule="evenodd" d="M361.994 545.796C361.994 545.796 361.14 535.339 351.751 529.776C302.986 513.424 298.735 560.982 310.783 561.79C312.626 561.913 329.465 556.817 331.144 557.001C349.434 559.002 345.785 569.483 346.898 572.827C349.879 581.791 329.526 589.437 327.637 595.87C325.488 603.187 335.914 605.427 345.898 605.427C357.734 605.427 369.199 597.344 369.199 597.344C369.199 597.344 377.917 588.36 376.593 580.082C393.89 574.826 410.643 571.852 411.606 562.292C412.263 555.772 413.599 540.834 402.125 543.712L361.994 545.796Z" fill="#010103"/>
<path fill-rule="evenodd" clip-rule="evenodd" d="M355.657 555.352C355.657 555.352 368.575 562.379 370.987 571.305C373.4 580.231 369.49 587.615 364.25 593.795C359.009 599.976 338.56 602.266 334.818 599.433C331.076 596.599 335.051 591.225 348.564 583.734C356.297 579.448 345.519 559.142 345.519 559.142L355.657 555.352Z" fill="#CC7910"/>
<path fill-rule="evenodd" clip-rule="evenodd" d="M398.43 549.794C398.43 549.794 359.115 553.793 348.458 549.51C345.479 559.078 353.838 576.676 363.213 583.053C374.39 575.086 390.709 569.792 400.75 567.065C407.08 565.346 410.398 557.916 406.723 552.54C405.055 550.1 402.461 548.608 398.43 549.794Z" fill="#CC7910"/>
<path fill-rule="evenodd" clip-rule="evenodd" d="M358.691 560.825C358.691 560.825 358.878 544.885 352.081 537.199C345.285 529.512 336.695 528.451 328.515 529.329C320.335 530.207 308.002 547.138 308.664 552.25C309.326 557.36 316.145 557.118 329.658 549.628C337.391 545.341 350.999 573.255 350.999 573.255L358.691 560.825Z" fill="#CC7910"/>
<path fill-rule="evenodd" clip-rule="evenodd" d="M324.411 530.685C331.949 527.974 339.03 529.051 345.652 533.914C345.621 529.723 344.248 528.685 344.248 528.685C334.469 523.161 325.299 523.828 316.739 530.685L324.411 530.685Z" fill="#010103"/>
<path fill-rule="evenodd" clip-rule="evenodd" d="M357.132 584.719L336.973 552.446C336.973 552.446 368.707 566.15 357.132 584.719Z" fill="#010103"/>
<path opacity="0.5" fill-rule="evenodd" clip-rule="evenodd" d="M324.327 553.579C335.043 553.7 357.991 564.715 346.415 583.284C343.307 573.483 340.985 568.498 339.45 568.328C319.955 566.171 324.327 553.579 324.327 553.579Z" fill="#010103"/>
<g opacity="0.3">
<path opacity="0.3" fill-rule="evenodd" clip-rule="evenodd" d="M399.254 567.326C400.078 565.888 400.786 564.116 401.211 562.479C401.619 560.805 401.67 559.121 401.285 557.586C400.937 556.055 400.314 554.545 399.133 553.326C398.048 552.051 396.585 551.024 395.091 549.979L394.924 549.861C394.246 549.389 394.12 548.462 394.642 547.794C395.125 547.174 395.994 546.993 396.657 547.345C397.583 547.836 398.548 548.282 399.46 548.836C400.284 549.523 401.229 550.061 401.932 550.918C403.516 552.414 404.658 554.467 405.184 556.64C405.661 558.842 405.491 561.125 404.915 563.223C404.334 565.358 403.427 567.246 402.026 569.113C401.468 569.857 400.403 570.051 399.648 569.545C398.953 569.078 398.765 568.179 399.178 567.457L399.254 567.326Z" fill="#010103"/>
<path opacity="0.3" fill-rule="evenodd" clip-rule="evenodd" d="M392.707 569.82C393.52 568.197 394.159 566.213 394.485 564.379C394.792 562.508 394.735 560.633 394.232 558.909C393.754 557.191 393.024 555.496 391.742 554.088C390.554 552.629 388.993 551.414 387.397 550.188L387.243 550.074C386.583 549.579 386.491 548.65 387.039 547.999C387.547 547.393 388.432 547.242 389.081 547.629C390.057 548.209 391.066 548.755 392.018 549.401C392.876 550.176 393.862 550.807 394.599 551.738C396.25 553.398 397.459 555.57 398.115 557.864C398.71 560.191 398.68 562.625 398.23 564.917C397.776 567.246 396.955 569.355 395.57 571.47C395.054 572.236 394 572.482 393.218 572.019C392.492 571.591 392.253 570.703 392.634 569.963L392.707 569.82Z" fill="#010103"/>
<path opacity="0.3" fill-rule="evenodd" clip-rule="evenodd" d="M386.163 572.313C386.965 570.504 387.534 568.31 387.76 566.279C387.966 564.211 387.802 562.143 387.176 560.232C386.57 558.327 385.732 556.445 384.351 554.851C383.056 553.208 381.398 551.804 379.7 550.397L379.561 550.287C378.919 549.769 378.861 548.836 379.433 548.204C379.969 547.612 380.869 547.493 381.505 547.911C382.526 548.585 383.58 549.227 384.574 549.965C385.467 550.827 386.493 551.551 387.263 552.557C388.982 554.382 390.257 556.671 391.043 559.087C391.759 561.54 391.869 564.125 391.545 566.61C391.22 569.132 390.485 571.463 389.117 573.826C388.643 574.615 387.6 574.913 386.79 574.493C386.034 574.103 385.746 573.225 386.094 572.467L386.163 572.313Z" fill="#010103"/>
<path opacity="0.3" fill-rule="evenodd" clip-rule="evenodd" d="M379.623 574.807C380.414 572.813 380.912 570.408 381.038 568.18C381.142 565.914 380.868 563.655 380.121 561.555C379.386 559.465 378.439 557.395 376.958 555.614C375.558 553.787 373.802 552.195 372.002 550.606L371.876 550.5C371.253 549.96 371.23 549.023 371.827 548.409C372.388 547.832 373.304 547.746 373.925 548.194C374.991 548.963 376.094 549.701 377.13 550.53C378.055 551.479 379.123 552.296 379.925 553.375C381.712 555.366 383.054 557.774 383.969 560.311C384.806 562.889 385.057 565.627 384.862 568.304C384.665 571.02 384.018 573.572 382.667 576.182C382.234 576.994 381.206 577.345 380.367 576.968C379.582 576.615 379.242 575.747 379.557 574.972L379.623 574.807Z" fill="#010103"/>
<path opacity="0.3" fill-rule="evenodd" clip-rule="evenodd" d="M373.086 577.301C373.864 575.121 374.291 572.504 374.315 570.08C374.317 567.617 373.935 565.166 373.066 562.878C372.201 560.601 371.146 558.346 369.564 556.376C368.058 554.366 366.205 552.585 364.303 550.815L364.193 550.712C363.587 550.15 363.599 549.211 364.219 548.616C364.808 548.051 365.736 548.001 366.346 548.478C367.452 549.345 368.605 550.174 369.683 551.094C370.642 552.13 371.751 553.04 372.586 554.195C374.441 556.35 375.849 558.876 376.895 561.535C377.852 564.238 378.245 567.127 378.179 569.998C378.112 572.908 377.553 575.681 376.218 578.539C375.831 579.372 374.812 579.777 373.947 579.441C373.132 579.127 372.741 578.271 373.022 577.477L373.086 577.301Z" fill="#010103"/>
</g>
<path fill-rule="evenodd" clip-rule="evenodd" d="M325.714 534.406C331.115 532.171 336.743 536.365 330.576 540.621C324.41 544.875 322.646 540.859 311.412 550.453C310.928 544.085 320.314 536.641 325.714 534.406Z" fill="#010103"/>
<path opacity="0.4" fill-rule="evenodd" clip-rule="evenodd" d="M407.967 558.826C407.967 558.826 407.437 560.322 402.142 562.701C396.845 565.08 371.135 572.383 371.135 572.383L371.544 577.686L404.292 566.581C404.292 566.581 408.331 560.866 407.967 558.826Z" fill="#010103"/>
<path d="M322.331 743.562H343.751C356.171 743.562 362.381 750.462 362.381 764.262C362.381 777.462 355.871 784.062 342.851 784.062H335.561V816.462H322.331V743.562ZM340.691 774.702C344.291 774.702 346.721 773.952 347.981 772.452C349.241 770.892 349.871 768.132 349.871 764.172C349.871 761.292 349.661 759.102 349.241 757.602C348.821 756.042 347.951 754.872 346.631 754.092C345.371 753.312 343.391 752.922 340.691 752.922H335.561V774.702H340.691Z" fill="white"/>
<path d="M369.792 743.562H383.022V807.372H400.752V816.462H369.792V743.562Z" fill="white"/>
<path d="M418.563 743.562H432.783L447.363 816.462H435.033L432.153 799.632H419.463L416.493 816.462H403.983L418.563 743.562ZM430.713 791.172L425.763 760.572L420.813 791.172H430.713Z" fill="white"/>
<path d="M454.694 743.562H463.964L481.694 785.142V743.562H492.674V816.462H483.854L466.034 772.902V816.462H454.694V743.562Z" fill="white"/>
<path d="M503.737 743.562H513.007L530.737 785.142V743.562H541.717V816.462H532.897L515.077 772.902V816.462H503.737V743.562Z" fill="white"/>
<path d="M553.14 743.562H566.28V816.462H553.14V743.562Z" fill="white"/>
<path d="M577.565 743.562H586.835L604.565 785.142V743.562H615.545V816.462H606.725L588.905 772.902V816.462H577.565V743.562Z" fill="white"/>
<path d="M644.878 817.452C637.978 817.452 632.998 815.322 629.938 811.062C626.938 806.742 625.438 800.532 625.438 792.432V767.952C625.438 759.612 626.998 753.342 630.118 749.142C633.238 744.882 638.608 742.752 646.228 742.752C653.428 742.752 658.588 744.552 661.708 748.152C664.828 751.692 666.388 756.972 666.388 763.992V767.772H653.698V763.632C653.698 760.992 653.518 758.892 653.158 757.332C652.858 755.772 652.168 754.572 651.088 753.732C650.068 752.892 648.508 752.472 646.408 752.472C644.188 752.472 642.538 753.012 641.458 754.092C640.378 755.172 639.658 756.552 639.298 758.232C638.998 759.912 638.848 762.102 638.848 764.802V795.312C638.848 799.452 639.388 802.542 640.468 804.582C641.608 806.622 643.708 807.642 646.768 807.642C649.768 807.642 651.838 806.562 652.978 804.402C654.178 802.242 654.778 799.002 654.778 794.682V787.842H646.948V779.472H666.748V816.462H658.108L657.208 809.352C654.928 814.752 650.818 817.452 644.878 817.452Z" fill="white"/>
<path d="M371.537 165.437L351.368 79.6856L400.048 74.308L520.548 260.308L544.548 260.308L570.186 373.962L567.548 454.308L528.439 529.746L416.048 564.808L295.214 333.658L326.964 322.908L311.865 208.472L371.537 165.437Z" fill="black" fill-opacity="0.5"/>
<path d="M333.122 131.837L312.952 46.0856L365.548 28.1827L577.911 227.351L512.98 256.059L531.77 340.362L470.718 381.949L490.023 496.146L423.048 486.808L256.798 300.058L288.548 289.308L273.449 174.872L333.122 131.837Z" fill="#CDC3B3"/>
<path d="M490.048 496.183L288.548 289.308L245.048 299.308L240.048 308.558L235.298 302.058L201.548 309.308L302.548 415.808L315.173 429.12L323.936 420.659L327.798 442.433L353.048 469.058L385.173 491.558L417.048 506.995L447.048 509.808L490.048 496.183Z" fill="#BDB19D"/>
<path d="M533.049 340.308L333.549 130.308L273.304 174.733L470.736 381.964L533.049 340.308Z" fill="#BDB19D"/>
<path d="M513.173 256.433L580.013 226.265L480.263 121.265L430.388 68.7651L417.919 55.6401L397.923 48.9329L405.451 42.5151L392.982 29.3901L380.513 16.2651L312.869 46.0457L513.173 256.433Z" fill="#BDB19D"/>
<path d="M671.798 278.433L735.548 243.308C735.548 243.308 739.298 243.308 742.423 247.808C745.548 252.308 745.548 255.808 745.548 255.808L680.298 291.433L671.798 278.433Z" fill="#C4C4C4"/>
<path d="M671.798 278.433L735.548 243.308C735.548 243.308 739.298 243.308 742.423 247.808C745.548 252.308 745.548 255.808 745.548 255.808L726.048 265.558L671.798 278.433Z" fill="black" fill-opacity="0.2"/>
<path d="M689.256 273.545L724.417 255.012L727.508 260.837L693.378 278.95L689.256 273.545Z" fill="#E02828"/>
<path d="M665.647 281.339L660.644 289.981L655.602 294.51L654.047 296.881L655.18 298.122L658.738 297.612L664.235 294.979L675.479 294.653L682.925 290.473L672.719 277.228L665.647 281.339Z" fill="#E02828"/>
<rect width="1.56176" height="4.25928" transform="matrix(0.525942 0.850521 -0.850525 0.525935 654.46 296.473)" fill="#C1000C"/>
<path d="M675.298 294.683L665.673 281.37L660.548 290.245L664.173 294.995L675.298 294.683Z" fill="#C1000C"/>
<path d="M694.503 273.435L695.224 273.053L695.348 273.287C695.443 272.996 695.602 272.792 695.825 272.675C696.072 272.544 696.302 272.554 696.513 272.705C696.724 272.855 696.901 273.067 697.045 273.339L697.595 274.379C697.769 274.708 697.851 275.004 697.84 275.267C697.834 275.529 697.707 275.725 697.459 275.856C697.261 275.96 697.016 275.972 696.725 275.891L697.378 277.127L696.657 277.508L694.503 273.435ZM696.922 275.495C697.025 275.44 697.068 275.354 697.051 275.237C697.037 275.117 696.983 274.967 696.887 274.787L696.304 273.684C696.22 273.524 696.135 273.411 696.049 273.343C695.964 273.275 695.87 273.268 695.767 273.323C695.661 273.379 695.58 273.478 695.524 273.621L696.548 275.557C696.684 275.575 696.809 275.554 696.922 275.495ZM699.6 274.724C699.26 274.903 698.962 274.941 698.703 274.838C698.443 274.731 698.215 274.492 698.019 274.121L697.536 273.208C697.338 272.834 697.269 272.51 697.329 272.239C697.393 271.965 697.593 271.74 697.929 271.562C698.275 271.379 698.57 271.347 698.815 271.467C699.063 271.585 699.29 271.84 699.498 272.233L699.731 272.673L698.511 273.318L698.83 273.923C698.909 274.071 698.987 274.168 699.065 274.212C699.146 274.255 699.235 274.252 699.33 274.201C699.422 274.152 699.471 274.086 699.476 274.002C699.483 273.912 699.451 273.8 699.38 273.666L699.243 273.406L699.922 273.047L700.034 273.259C700.2 273.574 700.248 273.856 700.176 274.107C700.103 274.353 699.911 274.559 699.6 274.724ZM698.858 272.679L698.704 272.387C698.62 272.228 698.541 272.125 698.466 272.079C698.39 272.029 698.302 272.03 698.203 272.082C698.101 272.136 698.05 272.211 698.05 272.306C698.05 272.401 698.104 272.549 698.21 272.75L698.323 272.962L698.858 272.679ZM701.919 273.484C701.64 273.632 701.406 273.669 701.218 273.596C701.034 273.522 700.872 273.352 700.732 273.087L699.764 271.257L699.457 271.419L699.207 270.947L699.515 270.785L699.03 269.867L699.756 269.483L700.241 270.401L700.703 270.157L700.952 270.629L700.491 270.873L701.425 272.639C701.479 272.741 701.54 272.805 701.606 272.828C701.677 272.85 701.759 272.835 701.855 272.785C701.943 272.738 702.014 272.692 702.067 272.646L702.361 273.203C702.233 273.302 702.085 273.396 701.919 273.484ZM703.68 272.553C703.401 272.7 703.167 272.738 702.98 272.665C702.795 272.591 702.633 272.421 702.493 272.156L701.525 270.326L701.218 270.488L700.968 270.016L701.276 269.854L700.791 268.936L701.517 268.552L702.003 269.469L702.464 269.225L702.714 269.697L702.252 269.941L703.186 271.708C703.24 271.81 703.301 271.873 703.367 271.897C703.438 271.919 703.521 271.904 703.616 271.854C703.705 271.807 703.775 271.761 703.828 271.715L704.122 272.272C703.994 272.371 703.847 272.465 703.68 272.553ZM702.361 267.888L703.083 267.507L703.4 268.106L702.678 268.488L702.361 267.888ZM702.936 268.976L703.658 268.594L705.279 271.66L704.557 272.042L702.936 268.976ZM704.231 268.291L704.952 267.91L705.112 268.212C705.233 267.85 705.418 267.602 705.67 267.47C705.843 267.378 706.006 267.373 706.158 267.456C706.313 267.536 706.443 267.674 706.545 267.868L707.836 270.308L707.114 270.69L705.9 268.393C705.847 268.294 705.793 268.23 705.737 268.201C705.685 268.17 705.619 268.175 705.542 268.216C705.457 268.261 705.371 268.369 705.286 268.541L706.573 270.976L705.852 271.357L704.231 268.291ZM709.799 270.56C709.473 270.732 709.188 270.817 708.943 270.816C708.7 270.817 708.525 270.718 708.418 270.516C708.347 270.382 708.327 270.241 708.357 270.093C708.39 269.95 708.458 269.809 708.563 269.673C708.427 269.699 708.31 269.695 708.211 269.662C708.113 269.623 708.038 269.554 707.986 269.455C707.926 269.342 707.9 269.229 707.908 269.116C707.92 269.001 707.957 268.862 708.02 268.697C707.863 268.667 707.721 268.599 707.594 268.495C707.468 268.385 707.35 268.226 707.239 268.017C707.054 267.667 706.996 267.356 707.065 267.085C707.138 266.811 707.335 266.589 707.657 266.419C707.968 266.254 708.245 266.23 708.487 266.346C708.493 266.28 708.515 266.198 708.554 266.101C708.593 266.003 708.645 265.91 708.711 265.821L708.79 265.725L709.164 266.022C709.11 266.074 709.04 266.151 708.955 266.255C708.867 266.356 708.808 266.435 708.775 266.493C708.844 266.547 708.917 266.621 708.995 266.716C709.072 266.811 709.136 266.906 709.186 267.001C709.364 267.337 709.425 267.64 709.368 267.91C709.31 268.176 709.118 268.395 708.792 268.567C708.651 268.642 708.502 268.694 708.345 268.722C708.332 268.842 708.339 268.929 708.367 268.982C708.39 269.024 708.428 269.047 708.484 269.049C708.538 269.048 708.617 269.026 708.721 268.985L709.397 268.709C709.92 268.5 710.304 268.628 710.549 269.091C710.697 269.37 710.71 269.63 710.588 269.871C710.472 270.113 710.209 270.343 709.799 270.56ZM708.551 268.111C708.672 268.047 708.727 267.959 708.717 267.847C708.707 267.734 708.643 267.565 708.523 267.339C708.405 267.116 708.302 266.967 708.212 266.892C708.123 266.817 708.018 266.811 707.898 266.875C707.778 266.939 707.722 267.029 707.73 267.147C707.736 267.262 707.799 267.432 707.918 267.658C708.03 267.87 708.134 268.015 708.229 268.091C708.324 268.168 708.431 268.175 708.551 268.111ZM709.592 269.977C709.794 269.87 709.931 269.771 710.004 269.678C710.082 269.586 710.095 269.491 710.043 269.392C709.998 269.307 709.933 269.261 709.847 269.252C709.766 269.245 709.636 269.277 709.457 269.349L708.907 269.579C708.869 269.671 708.846 269.751 708.837 269.82C708.83 269.891 708.843 269.959 708.877 270.023C708.923 270.111 709.002 270.153 709.113 270.149C709.224 270.144 709.383 270.087 709.592 269.977ZM711.807 267.543L712.001 265.343C712.004 265.306 712.007 265.273 712.01 265.244C712.013 265.215 712.015 265.189 712.016 265.166C712.039 264.901 712.045 264.687 712.036 264.524C712.027 264.361 711.979 264.197 711.891 264.031C711.715 263.698 711.511 263.594 711.277 263.717C711.118 263.801 711.039 263.922 711.041 264.08C711.043 264.237 711.099 264.42 711.209 264.629L711.305 264.809L710.583 265.19L710.482 265C710.269 264.596 710.193 264.234 710.254 263.912C710.316 263.585 710.542 263.319 710.931 263.113C711.291 262.923 711.618 262.877 711.91 262.976C712.2 263.071 712.439 263.295 712.626 263.649C712.742 263.868 712.806 264.083 712.818 264.294C712.833 264.503 712.827 264.774 712.798 265.105L712.785 265.234L712.603 267.034L713.908 266.344L714.219 266.933L712.082 268.063L711.807 267.543ZM715.946 266.102C715.581 266.294 715.244 266.328 714.933 266.203C714.623 266.077 714.367 265.825 714.167 265.447L713.161 263.543C712.953 263.15 712.882 262.794 712.948 262.474C713.015 262.154 713.237 261.894 713.615 261.694C713.986 261.498 714.326 261.463 714.633 261.59C714.938 261.714 715.193 261.97 715.399 262.359L716.406 264.264C716.606 264.642 716.67 264.995 716.599 265.322C716.528 265.649 716.31 265.909 715.946 266.102ZM715.612 265.471C715.863 265.338 715.878 265.063 715.658 264.646L714.662 262.763C714.563 262.575 714.456 262.437 714.341 262.348C714.228 262.254 714.097 262.247 713.949 262.325C713.797 262.406 713.728 262.519 713.742 262.665C713.754 262.808 713.81 262.973 713.909 263.161L714.904 265.044C714.996 265.217 715.101 265.352 715.22 265.447C715.34 265.538 715.47 265.545 715.612 265.471ZM718.779 264.604C718.415 264.796 718.077 264.83 717.767 264.705C717.456 264.579 717.201 264.327 717.001 263.949L715.994 262.045C715.787 261.652 715.716 261.296 715.782 260.976C715.848 260.656 716.07 260.396 716.449 260.196C716.82 260 717.159 259.965 717.466 260.092C717.771 260.216 718.027 260.472 718.232 260.861L719.239 262.765C719.439 263.144 719.504 263.497 719.432 263.824C719.361 264.151 719.143 264.411 718.779 264.604ZM718.445 263.972C718.696 263.84 718.712 263.565 718.491 263.147L717.495 261.264C717.396 261.077 717.289 260.939 717.175 260.85C717.062 260.756 716.931 260.749 716.782 260.827C716.63 260.907 716.561 261.021 716.575 261.167C716.588 261.31 716.643 261.475 716.742 261.663L717.738 263.546C717.829 263.719 717.934 263.853 718.053 263.949C718.173 264.039 718.304 264.047 718.445 263.972ZM721.612 263.106C721.248 263.298 720.911 263.332 720.6 263.206C720.29 263.081 720.034 262.829 719.834 262.451L718.827 260.547C718.62 260.154 718.549 259.798 718.615 259.478C718.681 259.158 718.904 258.898 719.282 258.698C719.653 258.501 719.992 258.467 720.3 258.594C720.605 258.718 720.86 258.974 721.066 259.363L722.073 261.267C722.273 261.646 722.337 261.999 722.266 262.326C722.194 262.653 721.977 262.913 721.612 263.106ZM721.279 262.474C721.53 262.342 721.545 262.067 721.324 261.649L720.329 259.766C720.23 259.579 720.123 259.441 720.008 259.352C719.895 259.258 719.764 259.25 719.616 259.329C719.464 259.409 719.395 259.523 719.409 259.669C719.421 259.812 719.477 259.977 719.576 260.165L720.571 262.048C720.663 262.221 720.768 262.355 720.886 262.451C721.007 262.541 721.137 262.549 721.279 262.474Z" fill="white"/>
<path fill-rule="evenodd" clip-rule="evenodd" d="M772.722 215.249C761.075 197.88 742.668 193.785 717.5 202.964C731.124 213.471 737.826 219.159 737.607 220.027C737.238 221.487 701.836 210.137 696.001 209.421C677.531 207.138 625.804 246.819 625.804 246.819C660.433 261.094 687.826 267.926 707.984 267.315C738.858 266.38 773.421 213.929 772.722 215.249Z" fill="#010103"/>
<path d="M250.548 361.308L336.048 338.808L321.048 223.308L374.548 173.308L357.548 91.8076L425.548 63.3076" stroke="#A39988" stroke-width="2"/>
<path d="M296.601 408.808L382.101 386.308L367.101 270.808L417.548 222.308L403.601 139.308L471.601 110.808" stroke="#A39988" stroke-width="2"/>
<path d="M350.391 464.399L435.891 441.899L420.891 326.399L475.548 283.308L457.391 194.899L525.391 166.399" stroke="#A39988" stroke-width="2"/>
<path fill-rule="evenodd" clip-rule="evenodd" d="M477.482 88.3521C459.865 99.6185 455.371 117.932 464.002 143.294C474.802 129.902 480.634 123.324 481.497 123.562C482.949 123.963 470.833 159.11 469.991 164.928C467.308 183.344 505.857 235.92 505.857 235.92C520.88 201.609 528.305 174.371 528.132 154.204C527.866 123.317 476.178 87.6244 477.482 88.3521Z" fill="#010103"/>
<path d="M419.048 492.808C404.248 499.208 383.882 490.141 375.548 484.808L400.882 503.474C408.173 507.183 428.198 516.258 449.798 509.058C436.798 509.058 426.048 504.308 419.048 492.808Z" fill="white"/>
</g>
<defs>
<clipPath id="clip0">
<rect width="988.5" height="850" fill="white"/>
</clipPath>
</defs>
</svg>
